<svg id="svg" version="1.1" width="566" height="500" xmlns="http://www.w3.org/2000/svg" xmlns:xlink="http://www.w3.org/1999/xlink" style="display: block;"><g id="svgg"><path id="path0" d="" stroke="none" fill="#000000" fill-rule="evenodd"></path><path id="path1" d="M188.693 219.788 C 188.693 220.565,189.011 221.201,189.399 221.201 C 189.788 221.201,190.106 220.706,190.106 220.101 C 190.106 219.243,190.769 219.048,193.110 219.217 L 196.113 219.435 195.881 222.085 C 195.744 223.652,195.961 224.735,196.411 224.735 C 196.843 224.735,197.173 223.358,197.173 221.555 L 197.173 218.375 192.933 218.375 C 189.164 218.375,188.693 218.532,188.693 219.788 M236.749 219.081 C 236.749 219.470,238.339 219.788,240.283 219.788 C 242.226 219.788,243.816 220.106,243.816 220.495 C 243.816 220.883,244.134 221.201,244.523 221.201 C 244.912 221.201,245.230 220.565,245.230 219.788 C 245.230 218.532,244.759 218.375,240.989 218.375 C 238.634 218.375,236.749 218.689,236.749 219.081 M341.343 224.735 C 341.343 225.124,342.297 225.442,343.463 225.442 C 344.629 225.442,345.583 225.124,345.583 224.735 C 345.583 224.346,344.629 224.028,343.463 224.028 C 342.297 224.028,341.343 224.346,341.343 224.735 M235.336 227.915 C 235.336 229.664,235.654 231.095,236.042 231.095 C 236.431 231.095,236.749 229.664,236.749 227.915 C 236.749 226.166,236.431 224.735,236.042 224.735 C 235.654 224.735,235.336 226.166,235.336 227.915 M90.459 227.562 C 90.459 227.951,91.254 228.269,92.226 228.269 C 93.198 228.269,93.993 227.951,93.993 227.562 C 93.993 227.173,93.198 226.855,92.226 226.855 C 91.254 226.855,90.459 227.173,90.459 227.562 M339.929 230.742 L 339.929 233.922 336.396 233.922 C 334.452 233.922,332.862 234.240,332.862 234.629 C 332.862 235.729,339.186 235.473,340.333 234.326 C 341.473 233.187,341.724 227.562,340.636 227.562 C 340.247 227.562,339.929 228.993,339.929 230.742 M187.279 231.095 C 187.279 232.650,187.597 233.922,187.986 233.922 C 188.375 233.922,188.693 232.650,188.693 231.095 C 188.693 229.541,188.375 228.269,187.986 228.269 C 187.597 228.269,187.279 229.541,187.279 231.095 M242.403 231.095 C 242.403 232.650,242.721 233.922,243.110 233.922 C 243.498 233.922,243.816 232.650,243.816 231.095 C 243.816 229.541,243.498 228.269,243.110 228.269 C 242.721 228.269,242.403 229.541,242.403 231.095 M194.476 235.336 C 194.325 239.178,194.443 239.576,195.741 239.576 C 197.247 239.576,197.668 238.552,196.466 237.809 C 196.078 237.569,195.760 235.960,195.760 234.234 C 195.760 229.521,194.669 230.457,194.476 235.336 M346.996 232.206 C 346.996 234.335,348.901 235.336,352.953 235.336 L 356.890 235.336 356.890 238.163 C 356.890 239.717,357.208 240.989,357.597 240.989 C 357.986 240.989,358.304 239.399,358.304 237.456 L 358.304 233.922 353.357 233.922 C 348.881 233.922,348.410 233.788,348.410 232.509 C 348.410 231.731,348.092 231.095,347.703 231.095 C 347.314 231.095,346.996 231.595,346.996 232.206 M159.011 233.216 C 159.011 233.604,159.983 233.922,161.172 233.922 C 162.434 233.922,163.152 233.628,162.898 233.216 C 162.657 232.827,161.684 232.509,160.736 232.509 C 159.787 232.509,159.011 232.827,159.011 233.216 M54.417 234.672 C 54.417 235.164,55.572 235.255,57.774 234.935 C 62.338 234.273,62.440 233.922,58.068 233.922 C 55.965 233.922,54.417 234.240,54.417 234.672 M86.926 235.336 C 86.926 236.113,87.244 236.749,87.633 236.749 C 88.021 236.749,88.339 236.289,88.339 235.726 C 88.339 234.996,89.402 234.629,92.049 234.443 L 95.760 234.184 91.343 234.053 C 87.353 233.935,86.926 234.059,86.926 235.336 M115.194 234.629 C 115.194 235.018,115.653 235.336,116.213 235.336 C 116.773 235.336,117.428 235.018,117.668 234.629 C 117.908 234.240,117.450 233.922,116.649 233.922 C 115.849 233.922,115.194 234.240,115.194 234.629 M126.502 234.629 C 126.502 235.018,126.979 235.336,127.562 235.336 C 128.145 235.336,128.622 235.018,128.622 234.629 C 128.622 234.240,128.145 233.922,127.562 233.922 C 126.979 233.922,126.502 234.240,126.502 234.629 M152.650 234.629 C 152.650 235.018,153.127 235.336,153.710 235.336 C 154.293 235.336,154.770 235.018,154.770 234.629 C 154.770 234.240,154.293 233.922,153.710 233.922 C 153.127 233.922,152.650 234.240,152.650 234.629 M203.180 234.629 C 203.420 235.018,204.075 235.336,204.635 235.336 C 205.195 235.336,205.654 235.018,205.654 234.629 C 205.654 234.240,204.999 233.922,204.199 233.922 C 203.398 233.922,202.940 234.240,203.180 234.629 M212.721 234.629 C 212.721 235.018,213.179 235.336,213.739 235.336 C 214.299 235.336,214.954 235.018,215.194 234.629 C 215.435 234.240,214.976 233.922,214.176 233.922 C 213.376 233.922,212.721 234.240,212.721 234.629 M262.191 234.629 C 262.191 235.018,262.649 235.336,263.209 235.336 C 263.769 235.336,264.424 235.018,264.664 234.629 C 264.905 234.240,264.446 233.922,263.646 233.922 C 262.846 233.922,262.191 234.240,262.191 234.629 M281.979 234.629 C 281.979 235.022,283.877 235.336,286.261 235.336 C 288.935 235.336,290.379 235.070,290.106 234.629 C 289.866 234.240,287.939 233.922,285.824 233.922 C 283.709 233.922,281.979 234.240,281.979 234.629 M306.360 234.629 C 306.120 235.018,306.578 235.336,307.379 235.336 C 308.179 235.336,308.834 235.018,308.834 234.629 C 308.834 234.240,308.376 233.922,307.816 233.922 C 307.255 233.922,306.601 234.240,306.360 234.629 M319.081 234.629 C 319.321 235.018,319.976 235.336,320.536 235.336 C 321.097 235.336,321.555 235.018,321.555 234.629 C 321.555 234.240,320.900 233.922,320.100 233.922 C 319.299 233.922,318.841 234.240,319.081 234.629 M93.993 238.163 C 93.993 239.717,94.311 240.989,94.700 240.989 C 95.088 240.989,95.406 239.717,95.406 238.163 C 95.406 236.608,95.088 235.336,94.700 235.336 C 94.311 235.336,93.993 236.608,93.993 238.163 M53.004 240.636 C 53.004 242.385,53.252 243.816,53.557 243.816 C 53.861 243.816,54.172 242.385,54.248 240.636 C 54.324 238.887,54.075 237.456,53.695 237.456 C 53.315 237.456,53.004 238.887,53.004 240.636 M233.922 240.636 C 233.922 242.385,234.240 243.816,234.629 243.816 C 235.018 243.816,235.336 242.385,235.336 240.636 C 235.336 238.887,235.018 237.456,234.629 237.456 C 234.240 237.456,233.922 238.887,233.922 240.636 M279.152 238.869 C 279.152 239.258,279.788 239.576,280.565 239.576 C 281.343 239.576,281.979 239.258,281.979 238.869 C 281.979 238.481,281.343 238.163,280.565 238.163 C 279.788 238.163,279.152 238.481,279.152 238.869 M323.368 239.959 C 322.627 240.946,321.597 241.592,321.080 241.394 C 320.564 241.196,320.141 241.342,320.141 241.718 C 320.141 242.994,322.317 242.411,324.060 240.668 C 325.849 238.879,326.191 238.163,325.256 238.163 C 324.960 238.163,324.110 238.971,323.368 239.959 M156.184 240.283 C 156.184 240.676,158.082 240.989,160.466 240.989 C 163.140 240.989,164.584 240.724,164.311 240.283 C 164.071 239.894,162.144 239.576,160.029 239.576 C 157.914 239.576,156.184 239.894,156.184 240.283 M265.371 240.283 C 265.098 240.724,266.555 240.989,269.258 240.989 C 271.960 240.989,273.418 240.724,273.145 240.283 C 272.905 239.894,271.156 239.576,269.258 239.576 C 267.360 239.576,265.611 239.894,265.371 240.283 M307.420 240.283 C 307.420 240.671,307.879 240.989,308.439 240.989 C 308.999 240.989,309.654 240.671,309.894 240.283 C 310.134 239.894,309.676 239.576,308.876 239.576 C 308.075 239.576,307.420 239.894,307.420 240.283 M315.901 240.283 C 315.901 240.671,316.537 240.989,317.314 240.989 C 318.092 240.989,318.728 240.671,318.728 240.283 C 318.728 239.894,318.092 239.576,317.314 239.576 C 316.537 239.576,315.901 239.894,315.901 240.283 M65.724 241.696 C 65.724 242.085,66.342 242.403,67.096 242.403 C 67.851 242.403,68.664 242.085,68.905 241.696 C 69.152 241.295,68.559 240.989,67.533 240.989 C 66.538 240.989,65.724 241.307,65.724 241.696 M128.727 242.123 C 127.439 243.579,128.268 244.271,129.648 242.891 C 130.250 242.289,130.742 241.615,130.742 241.393 C 130.742 240.651,129.693 241.031,128.727 242.123 M150.980 242.853 C 149.943 243.889,149.240 244.882,149.416 245.058 C 149.593 245.235,150.586 244.532,151.622 243.495 C 152.659 242.459,153.362 241.466,153.186 241.289 C 153.009 241.113,152.016 241.816,150.980 242.853 M166.078 241.393 C 166.078 242.144,168.262 243.988,168.669 243.581 C 168.891 243.359,168.581 242.685,167.979 242.083 C 166.857 240.961,166.078 240.678,166.078 241.393 M185.866 243.816 C 185.866 245.371,186.184 246.643,186.572 246.643 C 186.961 246.643,187.279 245.371,187.279 243.816 C 187.279 242.261,186.961 240.989,186.572 240.989 C 186.184 240.989,185.866 242.261,185.866 243.816 M240.989 243.816 C 240.989 245.371,241.307 246.643,241.696 246.643 C 242.085 246.643,242.403 245.371,242.403 243.816 C 242.403 242.261,242.085 240.989,241.696 240.989 C 241.307 240.989,240.989 242.261,240.989 243.816 M338.516 243.816 C 338.516 245.371,338.834 246.643,339.223 246.643 C 339.611 246.643,339.929 245.371,339.929 243.816 C 339.929 242.261,339.611 240.989,339.223 240.989 C 338.834 240.989,338.516 242.261,338.516 243.816 M288.104 242.874 C 287.356 243.622,287.557 248.057,288.339 248.057 C 288.728 248.057,289.046 246.784,289.046 245.230 C 289.046 242.341,288.929 242.049,288.104 242.874 M345.583 245.583 C 345.583 247.332,345.901 248.763,346.290 248.763 C 346.678 248.763,346.996 247.332,346.996 245.583 C 346.996 243.834,346.678 242.403,346.290 242.403 C 345.901 242.403,345.583 243.834,345.583 245.583 M85.512 246.643 C 85.512 248.198,85.830 249.470,86.219 249.470 C 86.608 249.470,86.926 248.198,86.926 246.643 C 86.926 245.088,86.608 243.816,86.219 243.816 C 85.830 243.816,85.512 245.088,85.512 246.643 M175.972 249.470 C 175.972 253.115,176.229 255.048,176.678 254.770 C 177.067 254.530,177.385 252.145,177.385 249.470 C 177.385 246.795,177.067 244.410,176.678 244.170 C 176.229 243.892,175.972 245.825,175.972 249.470 M168.905 247.350 C 168.905 248.516,169.223 249.470,169.611 249.470 C 170.000 249.470,170.318 248.516,170.318 247.350 C 170.318 246.184,170.000 245.230,169.611 245.230 C 169.223 245.230,168.905 246.184,168.905 247.350 M224.028 249.470 C 224.028 251.413,224.346 253.004,224.735 253.004 C 225.124 253.004,225.442 251.413,225.442 249.470 C 225.442 247.527,225.124 245.936,224.735 245.936 C 224.346 245.936,224.028 247.527,224.028 249.470 M60.071 248.098 C 60.071 248.899,60.389 249.357,60.777 249.117 C 61.166 248.876,61.484 248.222,61.484 247.661 C 61.484 247.101,61.166 246.643,60.777 246.643 C 60.389 246.643,60.071 247.298,60.071 248.098 M148.065 247.336 C 147.778 247.800,147.862 248.498,148.250 248.886 C 149.171 249.807,149.903 248.623,149.158 247.417 C 148.724 246.714,148.461 246.695,148.065 247.336 M256.537 247.703 C 256.537 248.286,256.855 248.763,257.244 248.763 C 257.633 248.763,257.951 248.286,257.951 247.703 C 257.951 247.120,257.633 246.643,257.244 246.643 C 256.855 246.643,256.537 247.120,256.537 247.703 M92.580 250.883 C 92.580 252.438,92.898 253.710,93.286 253.710 C 93.675 253.710,93.993 252.438,93.993 250.883 C 93.993 249.329,93.675 248.057,93.286 248.057 C 92.898 248.057,92.580 249.329,92.580 250.883 M101.060 249.512 C 101.060 250.312,101.378 250.770,101.767 250.530 C 102.155 250.290,102.473 249.635,102.473 249.075 C 102.473 248.515,102.155 248.057,101.767 248.057 C 101.378 248.057,101.060 248.711,101.060 249.512 M139.223 249.428 C 139.223 250.229,139.541 250.883,139.929 250.883 C 140.318 250.883,140.636 250.425,140.636 249.865 C 140.636 249.305,140.318 248.650,139.929 248.410 C 139.541 248.170,139.223 248.628,139.223 249.428 M279.152 251.632 C 279.152 253.835,279.423 255.040,279.859 254.770 C 280.247 254.530,280.565 252.921,280.565 251.195 C 280.565 249.469,280.247 248.057,279.859 248.057 C 279.470 248.057,279.152 249.665,279.152 251.632 M307.420 248.763 C 307.420 249.152,308.075 249.470,308.876 249.470 C 309.676 249.470,310.134 249.152,309.894 248.763 C 309.654 248.375,308.999 248.057,308.439 248.057 C 307.879 248.057,307.420 248.375,307.420 248.763 M108.127 251.237 C 108.127 252.208,108.445 253.004,108.834 253.004 C 109.223 253.004,109.541 252.208,109.541 251.237 C 109.541 250.265,109.223 249.470,108.834 249.470 C 108.445 249.470,108.127 250.265,108.127 251.237 M248.057 251.632 C 248.057 252.893,248.351 253.612,248.763 253.357 C 249.152 253.117,249.470 252.144,249.470 251.195 C 249.470 250.246,249.152 249.470,248.763 249.470 C 248.375 249.470,248.057 250.443,248.057 251.632 M316.254 250.177 C 316.495 250.565,317.308 250.883,318.063 250.883 C 318.817 250.883,319.435 250.565,319.435 250.177 C 319.435 249.788,318.621 249.470,317.626 249.470 C 316.600 249.470,316.007 249.776,316.254 250.177 M51.590 253.357 C 51.590 255.106,51.839 256.537,52.143 256.537 C 52.447 256.537,52.758 255.106,52.835 253.357 C 52.911 251.608,52.662 250.177,52.282 250.177 C 51.901 250.177,51.590 251.608,51.590 253.357 M232.509 253.357 C 232.509 255.106,232.827 256.537,233.216 256.537 C 233.604 256.537,233.922 255.106,233.922 253.357 C 233.922 251.608,233.604 250.177,233.216 250.177 C 232.827 250.177,232.509 251.608,232.509 253.357 M192.933 253.710 C 192.933 255.265,193.251 256.537,193.640 256.537 C 194.028 256.537,194.346 255.265,194.346 253.710 C 194.346 252.155,194.028 250.883,193.640 250.883 C 193.251 250.883,192.933 252.155,192.933 253.710 M255.595 251.355 C 254.864 252.086,255.040 255.695,255.830 256.184 C 256.257 256.448,256.537 255.484,256.537 253.752 C 256.537 250.822,256.421 250.528,255.595 251.355 M337.102 256.184 C 337.102 257.933,337.420 259.364,337.809 259.364 C 338.198 259.364,338.516 257.933,338.516 256.184 C 338.516 254.435,338.198 253.004,337.809 253.004 C 337.420 253.004,337.102 254.435,337.102 256.184 M58.826 256.890 C 58.750 258.640,58.999 260.071,59.379 260.071 C 59.760 260.071,60.071 258.640,60.071 256.890 C 60.071 255.141,59.822 253.710,59.518 253.710 C 59.213 253.710,58.902 255.141,58.826 256.890 M184.452 256.537 C 184.452 258.092,184.770 259.364,185.159 259.364 C 185.548 259.364,185.866 258.092,185.866 256.537 C 185.866 254.982,185.548 253.710,185.159 253.710 C 184.770 253.710,184.452 254.982,184.452 256.537 M239.576 256.537 C 239.576 258.092,239.894 259.364,240.283 259.364 C 240.671 259.364,240.989 258.092,240.989 256.537 C 240.989 254.982,240.671 253.710,240.283 253.710 C 239.894 253.710,239.576 254.982,239.576 256.537 M304.594 254.417 C 304.594 254.806,305.248 255.124,306.049 255.124 C 306.849 255.124,307.307 254.806,307.067 254.417 C 306.827 254.028,306.172 253.710,305.612 253.710 C 305.052 253.710,304.594 254.028,304.594 254.417 M146.290 257.244 C 146.290 258.410,146.608 259.364,146.996 259.364 C 147.385 259.364,147.703 258.410,147.703 257.244 C 147.703 256.078,147.385 255.124,146.996 255.124 C 146.608 255.124,146.290 256.078,146.290 257.244 M286.690 255.595 C 285.942 256.343,286.144 260.777,286.926 260.777 C 287.314 260.777,287.633 259.505,287.633 257.951 C 287.633 255.062,287.516 254.770,286.690 255.595 M313.074 255.830 C 313.074 256.219,313.710 256.537,314.488 256.537 C 315.265 256.537,315.901 256.219,315.901 255.830 C 315.901 255.442,315.265 255.124,314.488 255.124 C 313.710 255.124,313.074 255.442,313.074 255.830 M344.170 257.951 C 344.170 259.505,344.488 260.777,344.876 260.777 C 345.265 260.777,345.583 259.505,345.583 257.951 C 345.583 256.396,345.265 255.124,344.876 255.124 C 344.488 255.124,344.170 256.396,344.170 257.951 M84.099 259.364 C 84.099 260.919,84.417 262.191,84.806 262.191 C 85.194 262.191,85.512 260.919,85.512 259.364 C 85.512 257.809,85.194 256.537,84.806 256.537 C 84.417 256.537,84.099 257.809,84.099 259.364 M108.127 257.951 C 108.127 258.728,108.445 259.364,108.834 259.364 C 109.223 259.364,109.541 258.728,109.541 257.951 C 109.541 257.173,109.223 256.537,108.834 256.537 C 108.445 256.537,108.127 257.173,108.127 257.951 M222.615 257.597 C 222.615 258.180,222.933 258.657,223.322 258.657 C 223.710 258.657,224.028 258.180,224.028 257.597 C 224.028 257.014,223.710 256.537,223.322 256.537 C 222.933 256.537,222.615 257.014,222.615 257.597 M248.057 259.676 C 248.057 260.670,248.375 261.484,248.763 261.484 C 249.152 261.484,249.470 260.867,249.470 260.112 C 249.470 259.358,249.152 258.544,248.763 258.304 C 248.362 258.056,248.057 258.650,248.057 259.676 M139.223 260.424 C 139.223 261.007,139.541 261.484,139.929 261.484 C 140.318 261.484,140.636 261.007,140.636 260.424 C 140.636 259.841,140.318 259.364,139.929 259.364 C 139.541 259.364,139.223 259.841,139.223 260.424 M91.166 263.604 C 91.166 265.159,91.484 266.431,91.873 266.431 C 92.261 266.431,92.580 265.159,92.580 263.604 C 92.580 262.049,92.261 260.777,91.873 260.777 C 91.484 260.777,91.166 262.049,91.166 263.604 M101.060 261.837 C 101.060 262.420,101.378 262.898,101.767 262.898 C 102.155 262.898,102.473 262.420,102.473 261.837 C 102.473 261.254,102.155 260.777,101.767 260.777 C 101.378 260.777,101.060 261.254,101.060 261.837 M147.703 261.181 C 147.703 261.932,149.887 263.776,150.294 263.369 C 150.517 263.147,150.206 262.473,149.605 261.871 C 148.482 260.749,147.703 260.466,147.703 261.181 M296.996 261.835 C 295.684 263.325,295.925 263.733,297.527 262.734 C 298.304 262.248,298.940 261.609,298.940 261.314 C 298.940 260.473,297.966 260.733,296.996 261.835 M316.784 263.248 C 315.779 264.390,315.656 265.018,316.438 265.018 C 316.733 265.018,317.372 264.382,317.857 263.604 C 318.865 261.991,318.112 261.740,316.784 263.248 M337.102 263.604 C 337.102 264.382,337.420 265.018,337.809 265.018 C 338.198 265.018,338.516 264.382,338.516 263.604 C 338.516 262.827,338.198 262.191,337.809 262.191 C 337.420 262.191,337.102 262.827,337.102 263.604 M50.177 266.078 C 50.177 267.827,50.426 269.258,50.730 269.258 C 51.034 269.258,51.345 267.827,51.421 266.078 C 51.497 264.329,51.248 262.898,50.868 262.898 C 50.488 262.898,50.177 264.329,50.177 266.078 M231.095 266.078 C 231.095 267.827,231.413 269.258,231.802 269.258 C 232.191 269.258,232.509 267.827,232.509 266.078 C 232.509 264.329,232.191 262.898,231.802 262.898 C 231.413 262.898,231.095 264.329,231.095 266.078 M113.781 264.311 C 113.781 264.700,114.258 265.018,114.841 265.018 C 115.424 265.018,115.901 264.700,115.901 264.311 C 115.901 263.922,115.424 263.604,114.841 263.604 C 114.258 263.604,113.781 263.922,113.781 264.311 M140.636 264.008 C 140.636 264.536,142.536 266.431,143.065 266.431 C 143.290 266.431,143.078 265.795,142.592 265.018 C 141.764 263.691,140.636 263.109,140.636 264.008 M200.000 264.311 C 200.000 264.704,201.885 265.018,204.240 265.018 C 206.596 265.018,208.481 264.704,208.481 264.311 C 208.481 263.918,206.596 263.604,204.240 263.604 C 201.885 263.604,200.000 263.918,200.000 264.311 M260.777 264.311 C 260.777 264.700,261.254 265.018,261.837 265.018 C 262.420 265.018,262.898 264.700,262.898 264.311 C 262.898 263.922,262.420 263.604,261.837 263.604 C 261.254 263.604,260.777 263.922,260.777 264.311 M346.996 264.311 C 346.996 264.700,348.587 265.018,350.530 265.018 C 352.473 265.018,354.064 264.700,354.064 264.311 C 354.064 263.922,352.473 263.604,350.530 263.604 C 348.587 263.604,346.996 263.922,346.996 264.311 M306.360 265.724 C 306.601 266.113,308.350 266.431,310.247 266.431 C 312.145 266.431,313.894 266.113,314.134 265.724 C 314.407 265.283,312.950 265.018,310.247 265.018 C 307.545 265.018,306.087 265.283,306.360 265.724 M354.535 265.489 C 353.787 266.237,353.988 270.671,354.770 270.671 C 355.159 270.671,355.477 269.399,355.477 267.845 C 355.477 264.956,355.360 264.664,354.535 265.489 M57.479 268.551 C 57.479 269.717,57.744 270.671,58.068 270.671 C 58.392 270.671,58.657 269.717,58.657 268.551 C 58.657 267.385,58.392 266.431,58.068 266.431 C 57.744 266.431,57.479 267.385,57.479 268.551 M183.039 268.551 C 183.039 269.717,183.357 270.671,183.746 270.671 C 184.134 270.671,184.452 269.717,184.452 268.551 C 184.452 267.385,184.134 266.431,183.746 266.431 C 183.357 266.431,183.039 267.385,183.039 268.551 M238.163 268.551 C 238.163 269.717,238.481 270.671,238.869 270.671 C 239.258 270.671,239.576 269.717,239.576 268.551 C 239.576 267.385,239.258 266.431,238.869 266.431 C 238.481 266.431,238.163 267.385,238.163 268.551 M274.610 267.506 C 273.861 268.073,273.507 268.778,273.823 269.074 C 274.140 269.370,274.540 269.214,274.714 268.728 C 275.246 267.238,277.739 267.675,277.739 269.258 C 277.739 270.035,278.057 270.671,278.445 270.671 C 278.834 270.671,279.152 269.717,279.152 268.551 C 279.152 266.130,277.064 265.650,274.610 267.506 M338.516 266.817 C 338.516 267.428,342.104 270.852,342.417 270.539 C 342.760 270.197,339.595 266.431,338.964 266.431 C 338.717 266.431,338.516 266.605,338.516 266.817 M190.106 269.258 C 190.106 270.035,190.424 270.671,190.813 270.671 C 191.201 270.671,191.519 270.035,191.519 269.258 C 191.519 268.481,191.201 267.845,190.813 267.845 C 190.424 267.845,190.106 268.481,190.106 269.258 M285.181 268.758 C 284.879 269.455,284.829 270.224,285.072 270.466 C 285.789 271.184,286.368 270.176,286.038 268.783 C 285.745 267.549,285.707 267.548,285.181 268.758 M319.838 268.955 C 319.090 269.502,318.678 270.150,318.923 270.395 C 319.167 270.639,319.897 270.310,320.545 269.662 C 322.068 268.139,321.598 267.668,319.838 268.955 M111.661 271.378 C 111.661 271.767,112.475 272.085,113.469 272.085 C 114.495 272.085,115.089 271.779,114.841 271.378 C 114.601 270.989,113.787 270.671,113.032 270.671 C 112.278 270.671,111.661 270.989,111.661 271.378 M120.848 271.378 C 120.848 271.767,121.484 272.085,122.261 272.085 C 123.039 272.085,123.675 271.767,123.675 271.378 C 123.675 270.989,123.039 270.671,122.261 270.671 C 121.484 270.671,120.848 270.989,120.848 271.378 M150.530 271.378 C 150.530 271.767,151.503 272.085,152.692 272.085 C 153.953 272.085,154.672 271.790,154.417 271.378 C 154.177 270.989,153.204 270.671,152.255 270.671 C 151.306 270.671,150.530 270.989,150.530 271.378 M159.364 271.378 C 159.109 271.790,159.828 272.085,161.089 272.085 C 162.278 272.085,163.251 271.767,163.251 271.378 C 163.251 270.989,162.475 270.671,161.526 270.671 C 160.577 270.671,159.604 270.989,159.364 271.378 M200.000 271.496 C 200.000 271.820,201.908 272.085,204.240 272.085 C 206.572 272.085,208.481 271.820,208.481 271.496 C 208.481 271.172,206.572 270.907,204.240 270.907 C 201.908 270.907,200.000 271.172,200.000 271.496 M258.657 271.378 C 258.657 271.767,259.471 272.085,260.466 272.085 C 261.491 272.085,262.085 271.779,261.837 271.378 C 261.597 270.989,260.783 270.671,260.029 270.671 C 259.275 270.671,258.657 270.989,258.657 271.378 M266.784 271.378 C 266.544 271.767,267.002 272.085,267.803 272.085 C 268.603 272.085,269.258 271.767,269.258 271.378 C 269.258 270.989,268.800 270.671,268.240 270.671 C 267.679 270.671,267.025 270.989,266.784 271.378 M301.060 271.378 C 301.060 271.767,301.537 272.085,302.120 272.085 C 302.703 272.085,303.180 271.767,303.180 271.378 C 303.180 270.989,302.703 270.671,302.120 270.671 C 301.537 270.671,301.060 270.989,301.060 271.378 M314.488 271.378 C 314.488 271.767,314.946 272.085,315.506 272.085 C 316.066 272.085,316.721 271.767,316.961 271.378 C 317.201 270.989,316.743 270.671,315.943 270.671 C 315.142 270.671,314.488 270.989,314.488 271.378 M345.583 271.378 C 345.583 271.767,346.696 272.085,348.057 272.085 C 349.417 272.085,350.530 271.767,350.530 271.378 C 350.530 270.989,349.417 270.671,348.057 270.671 C 346.696 270.671,345.583 270.989,345.583 271.378 " stroke="none" fill="#ffffff" fill-rule="evenodd"></path><path id="path2" d="" stroke="none" fill="#00ff00" fill-rule="evenodd"></path><path id="path3" d="M198.587 31.760 C 198.587 33.292,198.269 34.742,197.880 34.982 C 197.468 35.237,197.173 39.216,197.173 44.523 C 197.173 49.830,196.878 53.809,196.466 54.064 C 196.054 54.318,195.760 58.297,195.760 63.604 C 195.760 68.911,195.465 72.890,195.053 73.145 C 194.641 73.399,194.346 77.379,194.346 82.686 C 194.346 87.992,194.052 91.972,193.640 92.226 C 193.228 92.481,192.933 96.460,192.933 101.767 C 192.933 107.074,192.638 111.053,192.226 111.307 C 191.775 111.586,191.519 121.327,191.519 138.204 C 191.519 155.373,191.271 164.664,190.813 164.664 C 190.424 164.664,190.106 163.888,190.106 162.939 C 190.106 161.990,189.788 161.018,189.399 160.777 C 189.011 160.537,188.693 159.723,188.693 158.969 C 188.693 158.214,188.375 157.597,187.986 157.597 C 187.597 157.597,187.279 156.821,187.279 155.872 C 187.279 154.923,186.961 153.950,186.572 153.710 C 186.184 153.470,185.866 152.656,185.866 151.902 C 185.866 151.147,185.548 150.530,185.159 150.530 C 184.770 150.530,184.452 149.894,184.452 149.117 C 184.452 148.339,184.134 147.703,183.746 147.703 C 183.357 147.703,183.039 147.256,183.039 146.710 C 183.039 146.164,182.435 144.494,181.698 143.000 C 176.510 132.491,175.350 129.662,176.121 129.401 C 177.557 128.915,180.212 125.907,180.212 124.767 C 180.212 124.166,180.530 123.675,180.919 123.675 C 181.307 123.675,181.625 122.899,181.625 121.950 C 181.625 121.001,181.943 120.028,182.332 119.788 C 182.721 119.548,183.039 117.144,183.039 114.446 L 183.039 109.541 180.919 109.541 C 179.753 109.541,178.799 109.859,178.799 110.247 C 178.799 110.636,178.384 110.954,177.877 110.954 C 176.449 110.954,172.096 115.290,170.993 117.809 C 170.006 120.067,167.491 119.204,167.491 116.608 C 167.491 116.187,166.855 115.159,166.078 114.325 C 164.610 112.749,164.136 109.541,165.371 109.541 C 165.760 109.541,166.078 108.764,166.078 107.816 C 166.078 106.867,166.396 105.894,166.784 105.654 C 167.173 105.413,167.491 102.692,167.491 99.605 C 167.491 96.335,167.196 93.993,166.784 93.993 C 166.396 93.993,166.078 92.403,166.078 90.459 C 166.078 87.135,165.970 86.926,164.260 86.926 C 162.235 86.926,160.424 88.384,160.424 90.014 C 160.424 90.602,160.106 91.279,159.717 91.519 C 159.329 91.760,159.011 94.529,159.011 97.673 L 159.011 103.390 157.059 101.342 C 155.986 100.215,154.332 98.180,153.383 96.820 C 152.434 95.459,151.086 93.832,150.387 93.203 C 149.024 91.977,148.660 89.753,149.823 89.753 C 150.212 89.753,150.530 89.117,150.530 88.339 C 150.530 87.562,150.848 86.926,151.237 86.926 C 151.625 86.926,151.943 85.672,151.943 84.141 C 151.943 82.609,152.261 81.159,152.650 80.919 C 154.456 79.803,153.472 68.551,151.568 68.551 C 150.510 68.551,149.591 69.057,149.320 69.788 C 149.068 70.468,148.283 71.539,147.576 72.168 C 146.868 72.796,146.290 73.830,146.290 74.465 C 146.290 75.099,145.972 75.618,145.583 75.618 C 145.194 75.618,144.876 76.254,144.876 77.032 C 144.876 77.809,144.558 78.445,144.170 78.445 C 143.781 78.445,143.463 79.263,143.463 80.262 C 143.463 83.670,141.615 84.537,139.388 82.174 C 138.325 81.047,136.899 79.916,136.219 79.661 C 134.914 79.171,134.483 77.032,135.689 77.032 C 136.108 77.032,136.396 74.441,136.396 70.671 C 136.396 66.902,136.108 64.311,135.689 64.311 C 135.300 64.311,134.972 63.595,134.960 62.721 C 134.934 60.866,133.436 58.657,132.204 58.657 C 131.010 58.657,129.329 60.463,129.329 61.745 C 129.329 62.333,129.011 63.011,128.622 63.251 C 128.233 63.491,127.915 65.081,127.915 66.784 C 127.915 68.488,127.575 70.091,127.160 70.348 C 126.745 70.604,126.574 71.255,126.781 71.793 C 127.134 72.713,124.916 71.912,123.675 70.671 C 123.287 70.284,120.760 68.809,118.059 67.395 C 116.386 66.519,116.336 66.274,116.526 59.747 C 116.657 55.263,116.467 53.004,115.959 53.004 C 115.538 53.004,115.194 52.590,115.194 52.084 C 115.194 51.579,114.797 50.309,114.311 49.263 C 113.206 46.883,109.541 46.467,109.541 48.722 C 109.541 49.476,109.223 50.290,108.834 50.530 C 108.445 50.770,108.127 51.724,108.127 52.650 C 108.127 53.576,107.809 54.530,107.420 54.770 C 107.032 55.011,106.714 56.707,106.714 58.541 L 106.714 61.875 103.887 61.605 C 102.332 61.457,101.060 61.051,101.060 60.703 C 101.060 60.355,99.788 60.071,98.233 60.071 C 96.678 60.071,95.406 59.753,95.406 59.364 C 95.406 58.975,94.770 58.657,93.993 58.657 C 92.768 58.657,92.580 58.186,92.580 55.124 C 92.580 53.180,92.261 51.590,91.873 51.590 C 91.484 51.590,91.166 51.156,91.166 50.626 C 91.166 48.191,87.553 45.936,83.649 45.936 C 79.909 45.936,79.859 45.964,79.859 48.057 C 79.859 49.223,80.177 50.177,80.565 50.177 C 80.954 50.177,81.272 50.925,81.272 51.839 C 81.272 52.753,82.226 54.499,83.392 55.719 C 86.062 58.513,84.837 60.526,82.120 57.809 C 81.461 57.150,81.084 57.150,80.424 57.809 C 79.869 58.364,76.938 58.657,71.943 58.657 C 67.326 58.657,64.311 58.936,64.311 59.364 C 64.311 59.753,63.576 60.071,62.677 60.071 C 61.779 60.071,60.361 60.707,59.527 61.484 C 58.692 62.261,57.694 62.898,57.309 62.898 C 56.924 62.898,55.718 64.090,54.630 65.547 C 53.541 67.004,52.089 68.819,51.403 69.579 C 50.717 70.339,50.265 71.293,50.400 71.699 C 50.728 72.693,62.898 73.095,62.898 72.112 C 62.898 71.708,63.852 71.378,65.018 71.378 C 66.184 71.378,67.138 71.129,67.138 70.824 C 67.138 70.519,68.092 69.706,69.258 69.017 C 70.424 68.328,71.378 67.306,71.378 66.744 C 71.378 66.183,71.696 65.724,72.085 65.724 C 72.473 65.724,72.792 64.770,72.792 63.604 C 72.792 61.412,77.616 60.277,78.799 62.191 C 79.039 62.580,80.330 62.898,81.667 62.898 C 84.231 62.898,85.231 65.723,83.337 67.617 C 82.918 68.036,82.679 69.292,82.807 70.409 C 83.373 75.360,93.993 72.764,93.993 67.674 C 93.993 65.863,94.213 65.656,95.930 65.854 C 98.050 66.099,99.198 68.551,97.193 68.551 C 95.738 68.551,92.580 71.674,92.580 73.113 C 92.580 73.713,92.261 74.205,91.873 74.205 C 91.484 74.205,91.166 75.795,91.166 77.739 L 91.166 81.272 94.700 81.272 C 96.643 81.272,98.233 80.954,98.233 80.565 C 98.233 80.177,98.721 79.859,99.317 79.859 C 100.723 79.859,105.300 75.282,105.300 73.875 C 105.300 73.279,105.618 72.792,106.007 72.792 C 106.396 72.792,106.714 72.155,106.714 71.378 C 106.714 70.601,107.032 69.965,107.420 69.965 C 107.809 69.965,108.127 70.283,108.127 70.671 C 108.127 71.060,108.763 71.378,109.541 71.378 C 110.318 71.378,110.954 71.696,110.954 72.085 C 110.954 72.473,111.368 72.792,111.873 72.792 C 113.173 72.792,116.596 74.454,116.602 75.088 C 116.605 75.380,117.244 75.618,118.021 75.618 C 118.799 75.618,119.435 75.936,119.435 76.325 C 119.435 76.714,118.983 77.032,118.430 77.032 C 113.791 77.032,108.847 87.703,113.251 88.209 C 114.320 88.332,115.194 88.730,115.194 89.093 C 115.194 89.456,116.148 89.753,117.314 89.753 C 118.481 89.753,119.435 89.435,119.435 89.046 C 119.435 88.657,119.926 88.339,120.527 88.339 C 122.244 88.339,125.088 85.054,125.088 83.071 C 125.088 81.012,125.248 80.947,127.356 82.155 C 130.768 84.111,133.014 86.926,131.162 86.926 C 130.012 86.926,124.446 89.712,123.145 90.939 C 121.666 92.333,122.031 95.406,123.675 95.406 C 124.452 95.406,125.088 95.724,125.088 96.113 C 125.088 96.506,126.973 96.820,129.329 96.820 C 131.684 96.820,133.569 96.506,133.569 96.113 C 133.569 95.724,133.986 95.406,134.496 95.406 C 135.005 95.406,136.105 94.770,136.940 93.993 C 138.877 92.188,138.949 92.197,141.326 94.574 C 143.428 96.676,142.667 98.233,139.539 98.233 C 138.926 98.233,136.670 99.959,134.527 102.068 C 130.076 106.449,129.557 109.010,133.039 109.411 C 134.108 109.534,134.982 109.931,134.982 110.294 C 134.982 112.700,146.388 110.028,149.754 106.834 C 150.759 105.880,154.764 109.470,154.769 111.328 C 154.770 111.728,155.406 112.514,156.184 113.074 C 158.530 114.765,157.828 115.194,152.717 115.194 C 143.023 115.194,139.294 119.389,144.632 124.288 C 147.940 127.324,157.315 127.858,159.669 125.144 C 161.614 122.902,164.664 123.916,164.664 126.805 C 164.664 127.415,164.982 127.915,165.371 127.915 C 165.760 127.915,166.078 128.233,166.078 128.622 C 166.078 129.011,165.442 129.329,164.664 129.329 C 163.887 129.329,163.251 129.011,163.251 128.622 C 163.251 128.194,160.188 127.915,155.477 127.915 C 150.766 127.915,147.703 128.194,147.703 128.622 C 147.703 129.011,147.094 129.329,146.349 129.329 C 145.524 129.329,144.628 130.157,144.056 131.449 C 143.540 132.615,142.877 133.569,142.584 133.569 C 142.290 133.569,142.049 134.504,142.049 135.647 C 142.049 136.790,141.731 137.922,141.343 138.163 C 140.954 138.403,140.636 140.012,140.636 141.738 C 140.636 143.464,140.318 144.876,139.929 144.876 C 139.541 144.876,139.220 144.638,139.217 144.346 C 139.210 143.712,135.788 142.049,134.488 142.049 C 133.983 142.049,133.569 141.731,133.569 141.343 C 133.569 140.954,132.933 140.636,132.155 140.636 C 131.378 140.636,130.742 140.318,130.742 139.929 C 130.742 139.541,130.106 139.223,129.329 139.223 C 127.994 139.223,127.915 138.751,127.915 130.742 C 127.915 125.559,127.640 122.261,127.208 122.261 C 126.820 122.261,126.502 121.625,126.502 120.848 C 126.502 119.801,126.031 119.435,124.685 119.435 C 122.507 119.435,120.848 120.923,120.848 122.876 C 120.848 123.658,120.530 124.495,120.141 124.735 C 119.143 125.352,119.260 133.111,120.283 134.134 C 120.942 134.794,120.628 134.982,118.869 134.982 C 117.625 134.982,116.608 134.664,116.608 134.276 C 116.608 133.887,115.972 133.569,115.194 133.569 C 114.101 133.569,113.781 133.098,113.781 131.490 C 113.781 130.347,113.463 129.215,113.074 128.975 C 112.686 128.735,112.367 127.762,112.367 126.813 C 112.367 125.865,112.049 125.088,111.661 125.088 C 111.272 125.088,110.954 124.589,110.954 123.978 C 110.954 122.549,109.253 120.848,107.824 120.848 C 107.214 120.848,106.714 120.530,106.714 120.141 C 106.714 119.749,104.829 119.435,102.473 119.435 L 98.233 119.435 98.233 122.624 C 98.233 125.674,99.215 128.413,100.686 129.467 C 101.066 129.739,101.101 130.213,100.766 130.527 C 100.433 130.840,100.018 130.698,99.844 130.212 C 99.656 129.683,98.255 129.329,96.357 129.329 C 93.286 129.329,91.166 128.185,91.166 126.529 C 91.166 122.991,82.484 118.021,76.304 118.021 C 69.920 118.021,69.015 120.967,73.997 125.530 L 76.601 127.915 74.347 127.915 C 72.593 127.915,71.289 127.129,68.483 124.382 C 66.498 122.438,64.430 120.848,63.886 120.848 C 63.342 120.848,62.898 120.530,62.898 120.141 C 62.898 119.753,62.280 119.435,61.526 119.435 C 60.771 119.435,59.958 119.117,59.717 118.728 C 59.040 117.632,52.348 117.869,51.186 119.031 C 50.039 120.178,49.811 123.675,50.883 123.675 C 51.272 123.675,51.590 124.194,51.590 124.829 C 51.590 126.120,54.991 129.326,56.360 129.328 C 56.846 129.328,57.244 129.647,57.244 130.035 C 57.244 130.424,56.194 130.742,54.912 130.742 C 53.629 130.742,52.277 131.043,51.908 131.411 C 50.462 132.852,45.350 132.511,43.935 130.879 C 43.195 130.026,42.071 129.329,41.437 129.329 C 40.802 129.329,40.283 129.011,40.283 128.622 C 40.283 128.233,39.647 127.915,38.869 127.915 C 38.092 127.915,37.456 127.597,37.456 127.208 C 37.456 126.129,27.440 126.371,25.972 127.486 C 22.669 129.993,27.613 136.396,32.853 136.396 C 33.830 136.396,34.629 136.714,34.629 137.102 C 34.629 137.491,33.993 137.809,33.216 137.809 C 32.438 137.809,31.802 138.127,31.802 138.516 C 31.802 138.905,30.396 139.223,28.678 139.223 C 23.336 139.223,18.947 144.268,19.226 150.087 L 19.435 154.417 23.498 154.629 C 26.000 154.759,27.562 154.556,27.562 154.099 C 27.562 153.691,28.062 153.357,28.672 153.357 C 30.101 153.357,31.802 151.655,31.802 150.227 C 31.802 149.616,32.104 149.117,32.474 149.117 C 32.843 149.117,33.240 147.288,33.357 145.053 C 33.562 141.116,33.635 140.982,35.689 140.758 C 36.855 140.631,38.111 140.234,38.481 139.875 C 38.850 139.516,40.342 139.223,41.796 139.223 C 43.250 139.223,44.636 138.905,44.876 138.516 C 45.117 138.127,47.017 137.809,49.099 137.809 C 51.489 137.809,53.002 137.483,53.201 136.926 C 53.375 136.440,53.751 136.260,54.038 136.526 C 54.325 136.792,53.891 137.726,53.075 138.602 C 52.258 139.479,51.590 140.931,51.590 141.829 C 51.590 142.728,51.272 143.463,50.883 143.463 C 50.495 143.463,50.177 145.053,50.177 146.996 L 50.177 150.530 54.417 150.530 C 56.749 150.530,58.657 150.287,58.657 149.991 C 58.657 149.694,59.373 149.138,60.247 148.754 C 61.122 148.370,62.151 147.341,62.535 146.466 C 62.919 145.592,63.475 144.876,63.772 144.876 C 64.068 144.876,64.311 143.464,64.311 141.738 C 64.311 140.012,64.629 138.403,65.018 138.163 C 65.406 137.922,65.724 137.108,65.724 136.354 C 65.724 135.127,66.246 134.982,70.671 134.982 C 75.847 134.982,76.556 135.408,74.205 137.102 C 73.428 137.663,72.792 138.687,72.792 139.379 C 72.792 140.070,72.473 140.636,72.085 140.636 C 71.696 140.636,71.378 141.686,71.378 142.968 C 71.378 144.251,71.018 145.661,70.578 146.101 C 67.774 148.904,73.706 150.166,78.097 147.701 C 81.322 145.889,85.512 141.710,85.512 140.306 C 85.512 139.710,85.830 139.223,86.219 139.223 C 86.608 139.223,86.926 138.587,86.926 137.809 C 86.926 136.245,95.542 135.607,96.466 137.102 C 96.707 137.491,97.520 137.809,98.275 137.809 C 100.234 137.809,99.969 138.818,97.703 139.987 C 95.270 141.242,94.599 141.913,93.343 144.346 C 92.792 145.415,92.076 146.290,91.753 146.290 C 91.430 146.290,91.166 147.244,91.166 148.410 L 91.166 150.530 96.778 150.530 C 99.865 150.530,102.587 150.212,102.827 149.823 C 103.067 149.435,104.040 149.117,104.989 149.117 C 105.937 149.117,106.714 148.799,106.714 148.410 C 106.714 148.021,107.205 147.703,107.806 147.703 C 109.220 147.703,112.367 144.555,112.367 143.142 C 112.367 142.339,113.116 142.049,115.194 142.049 C 116.749 142.049,118.021 142.367,118.021 142.756 C 118.021 143.145,118.638 143.463,119.393 143.463 C 120.147 143.463,120.961 143.781,121.201 144.170 C 121.442 144.558,121.142 144.876,120.536 144.876 C 119.930 144.876,119.435 145.194,119.435 145.583 C 119.435 145.972,118.953 146.290,118.365 146.290 C 115.567 146.290,110.954 150.448,110.954 152.971 C 110.954 154.499,111.274 154.770,113.074 154.770 C 114.240 154.770,115.194 155.088,115.194 155.477 C 115.194 155.866,116.925 156.184,119.040 156.184 C 121.154 156.184,123.081 155.866,123.322 155.477 C 123.562 155.088,124.376 154.770,125.130 154.770 C 125.884 154.770,126.502 154.452,126.502 154.064 C 126.502 153.675,127.010 153.357,127.632 153.357 C 128.253 153.357,129.643 152.413,130.720 151.260 C 132.596 149.252,136.369 149.354,136.390 151.413 C 136.393 151.705,137.032 151.943,137.809 151.943 C 138.587 151.943,139.223 152.261,139.223 152.650 C 139.223 153.039,139.859 153.357,140.636 153.357 C 141.413 153.357,142.049 153.675,142.049 154.064 C 142.049 154.452,141.273 154.770,140.324 154.770 C 139.376 154.770,138.403 155.088,138.163 155.477 C 137.922 155.866,137.029 156.184,136.177 156.185 C 134.456 156.186,130.742 159.052,130.742 160.380 C 130.742 161.570,132.550 163.251,133.830 163.251 C 134.418 163.251,135.095 163.569,135.336 163.958 C 135.577 164.348,138.759 164.664,142.445 164.664 C 146.421 164.664,149.117 164.379,149.117 163.958 C 149.117 163.569,149.753 163.251,150.530 163.251 C 151.307 163.251,151.943 162.933,151.943 162.544 C 151.943 161.020,154.199 161.971,156.975 164.664 C 158.577 166.219,160.176 167.491,160.529 167.491 C 161.365 167.491,180.212 186.338,180.212 187.175 C 180.212 187.527,181.405 189.055,182.862 190.570 C 184.320 192.084,185.964 194.190,186.515 195.248 C 187.067 196.307,187.782 197.173,188.105 197.173 C 188.428 197.173,188.693 197.491,188.693 197.880 C 188.693 198.321,184.466 198.587,177.427 198.587 C 170.679 198.587,165.986 198.870,165.724 199.293 C 165.465 199.713,161.020 200.000,154.770 200.000 C 148.521 200.000,144.076 200.287,143.816 200.707 C 143.570 201.104,140.171 201.413,136.042 201.413 C 131.913 201.413,128.514 201.722,128.269 202.120 C 128.028 202.509,125.325 202.827,122.261 202.827 C 119.198 202.827,116.495 203.145,116.254 203.534 C 116.014 203.922,113.629 204.240,110.954 204.240 C 108.279 204.240,105.894 204.558,105.654 204.947 C 105.413 205.336,103.346 205.654,101.060 205.654 C 98.774 205.654,96.707 205.972,96.466 206.360 C 96.226 206.749,94.299 207.067,92.184 207.067 C 90.070 207.067,88.339 207.385,88.339 207.774 C 88.339 208.163,86.609 208.481,84.494 208.481 C 82.379 208.481,80.452 208.799,80.212 209.187 C 79.972 209.576,78.541 209.894,77.032 209.894 C 75.523 209.894,74.092 210.212,73.852 210.601 C 73.611 210.989,71.862 211.307,69.965 211.307 C 68.067 211.307,66.318 211.625,66.078 212.014 C 65.838 212.403,64.388 212.721,62.856 212.721 C 61.324 212.721,60.071 213.039,60.071 213.428 C 60.071 213.816,58.799 214.134,57.244 214.134 C 55.689 214.134,54.417 214.452,54.417 214.841 C 54.417 215.230,53.145 215.548,51.590 215.548 C 50.035 215.548,48.763 215.866,48.763 216.254 C 48.763 216.643,47.669 216.961,46.331 216.961 C 44.994 216.961,43.703 217.279,43.463 217.668 C 43.223 218.057,42.091 218.375,40.948 218.375 C 39.805 218.375,38.869 218.693,38.869 219.081 C 38.869 219.470,38.093 219.788,37.144 219.788 C 36.195 219.788,35.223 220.106,34.982 220.495 C 34.742 220.883,33.928 221.201,33.174 221.201 C 32.419 221.201,31.802 221.519,31.802 221.908 C 31.802 222.297,31.176 222.615,30.410 222.615 C 29.645 222.615,27.886 223.251,26.502 224.028 C 25.118 224.806,23.518 225.442,22.947 225.442 C 22.375 225.442,21.908 225.760,21.908 226.148 C 21.908 226.537,21.272 226.855,20.495 226.855 C 19.717 226.855,19.081 227.173,19.081 227.562 C 19.081 227.951,18.664 228.269,18.154 228.269 C 17.645 228.269,16.545 228.905,15.711 229.682 C 14.876 230.459,13.703 231.095,13.104 231.095 C 12.504 231.095,12.014 231.360,12.014 231.683 C 12.014 232.006,11.140 232.721,10.071 233.273 C -3.152 240.096,-4.019 259.513,8.568 266.948 C 9.686 267.609,10.601 268.399,10.601 268.704 C 10.601 269.008,11.018 269.258,11.528 269.258 C 12.037 269.258,13.137 269.894,13.971 270.671 C 14.806 271.449,15.979 272.085,16.578 272.085 C 17.178 272.085,17.668 272.403,17.668 272.792 C 17.668 273.180,18.304 273.498,19.081 273.498 C 19.859 273.498,20.495 273.816,20.495 274.205 C 20.495 274.594,21.131 274.912,21.908 274.912 C 22.686 274.912,23.322 275.230,23.322 275.618 C 23.322 276.007,23.803 276.325,24.391 276.325 C 25.429 276.325,26.179 276.621,29.496 278.335 C 30.365 278.784,31.558 279.152,32.146 279.152 C 32.734 279.152,33.216 279.470,33.216 279.859 C 33.216 280.247,34.170 280.565,35.336 280.565 C 36.502 280.565,37.456 280.883,37.456 281.272 C 37.456 281.661,38.550 281.979,39.888 281.979 C 41.225 281.979,42.516 282.297,42.756 282.686 C 42.996 283.074,44.268 283.392,45.583 283.392 C 46.898 283.392,48.170 283.710,48.410 284.099 C 48.650 284.488,49.763 284.806,50.883 284.806 C 52.004 284.806,53.117 285.124,53.357 285.512 C 53.597 285.901,54.869 286.219,56.184 286.219 C 57.498 286.219,58.770 286.537,59.011 286.926 C 59.251 287.314,60.860 287.633,62.586 287.633 C 64.312 287.633,65.724 287.951,65.724 288.339 C 65.724 288.728,67.137 289.046,68.863 289.046 C 70.589 289.046,72.198 289.364,72.438 289.753 C 72.678 290.141,74.109 290.459,75.618 290.459 C 77.127 290.459,78.558 290.777,78.799 291.166 C 79.039 291.555,80.788 291.873,82.686 291.873 C 84.583 291.873,86.332 292.191,86.572 292.580 C 86.813 292.968,88.562 293.286,90.459 293.286 C 92.357 293.286,94.106 293.604,94.346 293.993 C 94.587 294.382,96.654 294.700,98.940 294.700 C 101.226 294.700,103.293 295.018,103.534 295.406 C 103.774 295.795,105.841 296.113,108.127 296.113 C 110.413 296.113,112.481 296.431,112.721 296.820 C 112.961 297.208,115.505 297.527,118.375 297.527 C 121.244 297.527,123.788 297.845,124.028 298.233 C 124.268 298.622,127.290 298.940,130.742 298.940 C 134.194 298.940,137.216 299.258,137.456 299.647 C 137.707 300.054,141.454 300.353,146.290 300.353 C 151.126 300.353,154.872 300.653,155.124 301.060 C 155.396 301.501,162.302 301.767,173.498 301.767 C 184.694 301.767,191.600 302.032,191.873 302.473 C 192.113 302.862,194.994 303.180,198.275 303.180 C 201.781 303.180,204.240 302.889,204.240 302.473 C 204.240 302.020,210.940 301.767,222.926 301.767 C 234.622 301.767,241.776 301.502,242.049 301.060 C 242.303 300.650,246.165 300.353,251.237 300.353 C 256.308 300.353,260.171 300.056,260.424 299.647 C 260.664 299.258,263.526 298.940,266.784 298.940 C 270.042 298.940,272.905 298.622,273.145 298.233 C 273.385 297.845,276.088 297.527,279.152 297.527 C 282.216 297.527,284.919 297.208,285.159 296.820 C 285.399 296.431,287.784 296.113,290.459 296.113 C 293.134 296.113,295.519 295.795,295.760 295.406 C 296.000 295.018,298.086 294.700,300.395 294.700 C 302.723 294.700,304.594 294.385,304.594 293.993 C 304.594 293.600,306.478 293.286,308.834 293.286 C 311.190 293.286,313.074 292.972,313.074 292.580 C 313.074 292.191,314.805 291.873,316.919 291.873 C 319.034 291.873,320.961 291.555,321.201 291.166 C 321.442 290.777,323.032 290.459,324.735 290.459 C 326.438 290.459,328.028 290.141,328.269 289.753 C 328.509 289.364,330.099 289.046,331.802 289.046 C 333.505 289.046,335.095 288.728,335.336 288.339 C 335.576 287.951,337.026 287.633,338.558 287.633 C 340.089 287.633,341.343 287.314,341.343 286.926 C 341.343 286.537,342.615 286.219,344.170 286.219 C 345.724 286.219,346.996 285.901,346.996 285.512 C 346.996 285.124,348.269 284.806,349.823 284.806 C 351.378 284.806,352.650 284.488,352.650 284.099 C 352.650 283.710,353.922 283.392,355.477 283.392 C 357.032 283.392,358.304 283.074,358.304 282.686 C 358.304 282.297,359.258 281.979,360.424 281.979 C 361.590 281.979,362.544 281.661,362.544 281.272 C 362.544 280.883,363.320 280.565,364.269 280.565 C 365.218 280.565,366.191 280.247,366.431 279.859 C 366.671 279.470,367.485 279.152,368.240 279.152 C 368.994 279.152,369.611 278.834,369.611 278.445 C 369.611 278.057,370.247 277.739,371.025 277.739 C 371.802 277.739,372.438 277.420,372.438 277.032 C 372.438 276.643,372.852 276.325,373.357 276.325 C 374.657 276.325,378.080 274.663,378.086 274.028 C 378.089 273.737,378.728 273.498,379.505 273.498 C 380.283 273.498,380.919 273.180,380.919 272.792 C 380.919 272.403,381.555 272.085,382.332 272.085 C 383.110 272.085,383.746 271.767,383.746 271.378 C 383.746 270.989,384.163 270.671,384.672 270.671 C 385.182 270.671,386.282 270.035,387.116 269.258 C 387.951 268.481,388.922 267.845,389.275 267.845 C 390.378 267.845,397.880 260.248,397.880 259.131 C 397.880 258.546,398.277 257.936,398.763 257.774 C 399.399 257.562,399.647 255.292,399.647 249.685 L 399.647 241.890 394.249 236.493 C 391.281 233.524,388.485 231.095,388.036 231.095 C 387.587 231.095,386.537 230.459,385.703 229.682 C 384.868 228.905,383.769 228.269,383.259 228.269 C 382.749 228.269,382.332 227.951,382.332 227.562 C 382.332 227.173,381.919 226.855,381.413 226.855 C 380.113 226.855,376.691 225.193,376.684 224.558 C 376.681 224.267,376.061 224.028,375.307 224.028 C 374.552 224.028,373.738 223.710,373.498 223.322 C 373.258 222.933,372.285 222.615,371.336 222.615 C 370.388 222.615,369.611 222.297,369.611 221.908 C 369.611 221.519,368.657 221.201,367.491 221.201 C 366.325 221.201,365.371 220.883,365.371 220.495 C 365.371 220.106,364.595 219.788,363.646 219.788 C 362.697 219.788,361.724 219.470,361.484 219.081 C 361.244 218.693,359.972 218.375,358.657 218.375 C 357.343 218.375,356.071 218.057,355.830 217.668 C 355.590 217.279,354.140 216.961,352.608 216.961 C 351.077 216.961,349.823 216.643,349.823 216.254 C 349.823 215.866,348.551 215.548,346.996 215.548 C 345.442 215.548,344.170 215.230,344.170 214.841 C 344.170 214.452,342.757 214.134,341.031 214.134 C 339.305 214.134,337.696 213.816,337.456 213.428 C 337.216 213.039,335.785 212.721,334.276 212.721 C 332.767 212.721,331.336 212.403,331.095 212.014 C 330.855 211.625,329.265 211.307,327.562 211.307 C 325.859 211.307,324.268 210.989,324.028 210.601 C 323.788 210.212,322.039 209.894,320.141 209.894 C 318.244 209.894,316.495 209.576,316.254 209.187 C 316.014 208.799,314.265 208.481,312.367 208.481 C 310.470 208.481,308.721 208.163,308.481 207.774 C 308.240 207.385,306.173 207.067,303.887 207.067 C 301.601 207.067,299.534 206.749,299.293 206.360 C 299.053 205.972,296.827 205.654,294.346 205.654 C 291.866 205.654,289.640 205.336,289.399 204.947 C 289.159 204.558,286.774 204.240,284.099 204.240 C 281.424 204.240,279.039 203.922,278.799 203.534 C 278.558 203.145,275.696 202.827,272.438 202.827 C 269.180 202.827,266.318 202.509,266.078 202.120 C 265.834 201.726,262.551 201.413,258.657 201.413 C 254.764 201.413,251.480 201.101,251.237 200.707 C 250.976 200.285,246.414 200.000,239.929 200.000 C 233.445 200.000,228.882 199.715,228.622 199.293 C 228.370 198.886,224.610 198.587,219.746 198.587 C 214.592 198.587,211.307 198.312,211.307 197.880 C 211.307 197.491,211.572 197.173,211.895 197.173 C 212.218 197.173,212.933 196.307,213.485 195.248 C 214.036 194.190,215.680 192.084,217.138 190.570 C 218.595 189.055,219.788 187.527,219.788 187.175 C 219.788 186.338,238.635 167.491,239.471 167.491 C 239.824 167.491,241.423 166.219,243.025 164.664 C 245.801 161.971,248.057 161.020,248.057 162.544 C 248.057 162.933,248.693 163.251,249.470 163.251 C 250.247 163.251,250.883 163.569,250.883 163.958 C 250.883 164.893,264.086 164.893,264.664 163.958 C 264.905 163.569,265.582 163.251,266.170 163.251 C 267.450 163.251,269.258 161.570,269.258 160.380 C 269.258 159.052,265.544 156.186,263.823 156.185 C 262.971 156.184,262.078 155.866,261.837 155.477 C 261.597 155.088,260.624 154.770,259.676 154.770 C 258.727 154.770,257.951 154.452,257.951 154.064 C 257.951 153.675,258.587 153.357,259.364 153.357 C 260.141 153.357,260.777 153.039,260.777 152.650 C 260.777 152.261,261.413 151.943,262.191 151.943 C 262.968 151.943,263.607 151.705,263.610 151.413 C 263.631 149.354,267.404 149.252,269.280 151.260 C 270.357 152.413,271.747 153.357,272.368 153.357 C 272.990 153.357,273.498 153.675,273.498 154.064 C 273.498 154.452,274.116 154.770,274.870 154.770 C 275.624 154.770,276.438 155.088,276.678 155.477 C 276.919 155.866,278.846 156.184,280.960 156.184 C 283.075 156.184,284.806 155.866,284.806 155.477 C 284.806 155.088,285.760 154.770,286.926 154.770 C 288.726 154.770,289.046 154.499,289.046 152.971 C 289.046 150.448,284.433 146.290,281.635 146.290 C 281.047 146.290,280.565 145.972,280.565 145.583 C 280.565 145.194,280.070 144.876,279.464 144.876 C 278.858 144.876,278.558 144.558,278.799 144.170 C 279.039 143.781,279.853 143.463,280.607 143.463 C 281.362 143.463,281.979 143.145,281.979 142.756 C 281.979 142.367,283.251 142.049,284.806 142.049 C 286.884 142.049,287.633 142.339,287.633 143.142 C 287.633 144.555,290.780 147.703,292.194 147.703 C 292.795 147.703,293.286 148.021,293.286 148.410 C 293.286 148.799,294.063 149.117,295.011 149.117 C 295.960 149.117,296.933 149.435,297.173 149.823 C 297.413 150.212,300.135 150.530,303.222 150.530 L 308.834 150.530 308.834 148.410 C 308.834 147.244,308.570 146.290,308.247 146.290 C 307.924 146.290,307.208 145.415,306.657 144.346 C 306.105 143.277,305.336 142.085,304.947 141.696 C 304.558 141.307,303.366 140.538,302.297 139.987 C 300.031 138.818,299.766 137.809,301.725 137.809 C 302.480 137.809,303.293 137.491,303.534 137.102 C 304.458 135.607,313.074 136.245,313.074 137.809 C 313.074 138.587,313.392 139.223,313.781 139.223 C 314.170 139.223,314.488 139.710,314.488 140.306 C 314.488 141.710,318.678 145.889,321.903 147.701 C 326.294 150.166,332.226 148.904,329.422 146.101 C 328.982 145.661,328.622 144.251,328.622 142.968 C 328.622 141.686,328.304 140.636,327.915 140.636 C 327.527 140.636,327.208 140.070,327.208 139.379 C 327.208 138.687,326.572 137.663,325.795 137.102 C 323.444 135.408,324.153 134.982,329.329 134.982 C 333.754 134.982,334.276 135.127,334.276 136.354 C 334.276 137.108,334.594 137.922,334.982 138.163 C 335.371 138.403,335.689 140.012,335.689 141.738 C 335.689 143.464,335.932 144.876,336.228 144.876 C 336.525 144.876,337.081 145.592,337.465 146.466 C 337.849 147.341,338.878 148.370,339.753 148.754 C 340.627 149.138,341.343 149.694,341.343 149.991 C 341.343 150.287,343.251 150.530,345.583 150.530 L 349.823 150.530 349.823 146.996 C 349.823 145.053,349.505 143.463,349.117 143.463 C 348.728 143.463,348.410 142.728,348.410 141.829 C 348.410 140.931,347.742 139.479,346.925 138.602 C 346.109 137.726,345.675 136.792,345.962 136.526 C 346.249 136.260,346.625 136.440,346.799 136.926 C 346.998 137.483,348.511 137.809,350.901 137.809 C 352.983 137.809,354.883 138.127,355.124 138.516 C 355.364 138.905,356.750 139.223,358.204 139.223 C 359.658 139.223,361.150 139.516,361.519 139.875 C 361.889 140.234,363.145 140.631,364.311 140.758 C 366.365 140.982,366.438 141.116,366.643 145.053 C 366.760 147.288,367.157 149.117,367.526 149.117 C 367.896 149.117,368.198 149.616,368.198 150.227 C 368.198 151.655,369.899 153.357,371.328 153.357 C 371.938 153.357,372.438 153.691,372.438 154.099 C 372.438 154.556,374.000 154.759,376.502 154.629 L 380.565 154.417 380.774 150.087 C 381.053 144.268,376.664 139.223,371.322 139.223 C 369.604 139.223,368.198 138.905,368.198 138.516 C 368.198 138.127,367.562 137.809,366.784 137.809 C 366.007 137.809,365.371 137.491,365.371 137.102 C 365.371 136.714,366.170 136.396,367.147 136.396 C 372.387 136.396,377.331 129.993,374.028 127.486 C 372.560 126.371,362.544 126.129,362.544 127.208 C 362.544 127.597,361.908 127.915,361.131 127.915 C 360.353 127.915,359.717 128.233,359.717 128.622 C 359.717 129.011,359.198 129.329,358.563 129.329 C 357.929 129.329,356.805 130.026,356.065 130.879 C 354.650 132.511,349.538 132.852,348.092 131.411 C 347.723 131.043,346.371 130.742,345.088 130.742 C 343.806 130.742,342.756 130.424,342.756 130.035 C 342.756 129.647,343.154 129.328,343.640 129.328 C 345.009 129.326,348.410 126.120,348.410 124.829 C 348.410 124.194,348.728 123.675,349.117 123.675 C 350.189 123.675,349.961 120.178,348.814 119.031 C 347.652 117.869,340.960 117.632,340.283 118.728 C 340.042 119.117,339.229 119.435,338.474 119.435 C 337.720 119.435,337.102 119.753,337.102 120.141 C 337.102 120.530,336.658 120.848,336.114 120.848 C 335.570 120.848,333.502 122.438,331.517 124.382 C 328.711 127.129,327.407 127.915,325.653 127.915 L 323.399 127.915 326.003 125.530 C 330.985 120.967,330.080 118.021,323.696 118.021 C 317.516 118.021,308.834 122.991,308.834 126.529 C 308.834 128.185,306.714 129.329,303.643 129.329 C 301.745 129.329,300.344 129.683,300.156 130.212 C 299.982 130.698,299.567 130.840,299.234 130.527 C 298.899 130.213,298.934 129.739,299.314 129.467 C 300.785 128.413,301.767 125.674,301.767 122.624 L 301.767 119.435 297.527 119.435 C 295.171 119.435,293.286 119.749,293.286 120.141 C 293.286 120.530,292.786 120.848,292.176 120.848 C 290.747 120.848,289.046 122.549,289.046 123.978 C 289.046 124.589,288.728 125.088,288.339 125.088 C 287.951 125.088,287.633 125.865,287.633 126.813 C 287.633 127.762,287.314 128.735,286.926 128.975 C 286.537 129.215,286.219 130.347,286.219 131.490 C 286.219 133.098,285.899 133.569,284.806 133.569 C 284.028 133.569,283.392 133.887,283.392 134.276 C 283.392 134.664,282.375 134.982,281.131 134.982 C 279.372 134.982,279.058 134.794,279.717 134.134 C 280.740 133.111,280.857 125.352,279.859 124.735 C 279.470 124.495,279.152 123.658,279.152 122.876 C 279.152 120.923,277.493 119.435,275.315 119.435 C 273.969 119.435,273.498 119.801,273.498 120.848 C 273.498 121.625,273.180 122.261,272.792 122.261 C 272.360 122.261,272.085 125.559,272.085 130.742 C 272.085 138.751,272.006 139.223,270.671 139.223 C 269.894 139.223,269.258 139.541,269.258 139.929 C 269.258 140.318,268.622 140.636,267.845 140.636 C 267.067 140.636,266.431 140.954,266.431 141.343 C 266.431 141.731,266.017 142.049,265.512 142.049 C 264.212 142.049,260.790 143.712,260.783 144.346 C 260.780 144.638,260.459 144.876,260.071 144.876 C 259.682 144.876,259.364 143.464,259.364 141.738 C 259.364 140.012,259.046 138.403,258.657 138.163 C 258.269 137.922,257.951 136.790,257.951 135.647 C 257.951 134.504,257.710 133.569,257.416 133.569 C 257.123 133.569,256.460 132.615,255.944 131.449 C 255.372 130.157,254.476 129.329,253.651 129.329 C 252.906 129.329,252.297 129.011,252.297 128.622 C 252.297 128.194,249.234 127.915,244.523 127.915 C 239.812 127.915,236.749 128.194,236.749 128.622 C 236.749 129.011,236.113 129.329,235.336 129.329 C 234.558 129.329,233.922 129.011,233.922 128.622 C 233.922 128.233,234.240 127.915,234.629 127.915 C 235.018 127.915,235.336 127.415,235.336 126.805 C 235.336 123.916,238.386 122.902,240.331 125.144 C 242.685 127.858,252.060 127.324,255.368 124.288 C 260.706 119.389,256.977 115.194,247.283 115.194 C 242.172 115.194,241.470 114.765,243.816 113.074 C 244.594 112.514,245.230 111.728,245.231 111.328 C 245.236 109.470,249.241 105.880,250.246 106.834 C 253.612 110.028,265.018 112.700,265.018 110.294 C 265.018 109.931,265.892 109.534,266.961 109.411 C 270.443 109.010,269.924 106.449,265.473 102.068 C 263.330 99.959,261.074 98.233,260.461 98.233 C 257.333 98.233,256.572 96.676,258.674 94.574 C 261.051 92.197,261.123 92.188,263.060 93.993 C 263.895 94.770,264.995 95.406,265.504 95.406 C 266.014 95.406,266.431 95.724,266.431 96.113 C 266.431 96.506,268.316 96.820,270.671 96.820 C 273.027 96.820,274.912 96.506,274.912 96.113 C 274.912 95.724,275.548 95.406,276.325 95.406 C 277.969 95.406,278.334 92.333,276.855 90.939 C 275.554 89.712,269.988 86.926,268.838 86.926 C 266.986 86.926,269.232 84.111,272.644 82.155 C 274.752 80.947,274.912 81.012,274.912 83.071 C 274.912 85.054,277.756 88.339,279.473 88.339 C 280.074 88.339,280.565 88.657,280.565 89.046 C 280.565 89.435,281.519 89.753,282.686 89.753 C 283.852 89.753,284.806 89.456,284.806 89.093 C 284.806 88.730,285.680 88.332,286.749 88.209 C 291.153 87.703,286.209 77.032,281.570 77.032 C 281.017 77.032,280.565 76.714,280.565 76.325 C 280.565 75.936,281.201 75.618,281.979 75.618 C 282.756 75.618,283.395 75.380,283.398 75.088 C 283.404 74.454,286.827 72.792,288.127 72.792 C 288.632 72.792,289.046 72.473,289.046 72.085 C 289.046 71.696,289.682 71.378,290.459 71.378 C 291.237 71.378,291.873 71.060,291.873 70.671 C 291.873 70.283,292.191 69.965,292.580 69.965 C 292.968 69.965,293.286 70.601,293.286 71.378 C 293.286 72.155,293.604 72.792,293.993 72.792 C 294.382 72.792,294.700 73.279,294.700 73.875 C 294.700 75.282,299.277 79.859,300.683 79.859 C 301.279 79.859,301.767 80.177,301.767 80.565 C 301.767 80.954,303.357 81.272,305.300 81.272 L 308.834 81.272 308.834 77.739 C 308.834 75.795,308.516 74.205,308.127 74.205 C 307.739 74.205,307.420 73.713,307.420 73.113 C 307.420 71.674,304.262 68.551,302.807 68.551 C 300.802 68.551,301.950 66.099,304.070 65.854 C 305.787 65.656,306.007 65.863,306.007 67.674 C 306.007 72.764,316.627 75.360,317.193 70.409 C 317.321 69.292,317.082 68.036,316.663 67.617 C 314.769 65.723,315.769 62.898,318.333 62.898 C 319.670 62.898,320.961 62.580,321.201 62.191 C 322.384 60.277,327.208 61.412,327.208 63.604 C 327.208 64.770,327.527 65.724,327.915 65.724 C 328.304 65.724,328.622 66.183,328.622 66.744 C 328.622 67.306,329.576 68.328,330.742 69.017 C 331.908 69.706,332.862 70.519,332.862 70.824 C 332.862 71.129,333.816 71.378,334.982 71.378 C 336.148 71.378,337.102 71.708,337.102 72.112 C 337.102 73.095,349.272 72.693,349.600 71.699 C 349.735 71.293,349.283 70.339,348.597 69.579 C 347.911 68.819,346.459 67.004,345.370 65.547 C 344.282 64.090,343.076 62.898,342.691 62.898 C 342.306 62.898,341.308 62.261,340.473 61.484 C 339.639 60.707,338.221 60.071,337.323 60.071 C 336.424 60.071,335.689 59.753,335.689 59.364 C 335.689 58.936,332.674 58.657,328.057 58.657 C 323.062 58.657,320.131 58.364,319.576 57.809 C 318.916 57.150,318.539 57.150,317.880 57.809 C 315.163 60.526,313.938 58.513,316.608 55.719 C 317.774 54.499,318.728 52.753,318.728 51.839 C 318.728 50.925,319.046 50.177,319.435 50.177 C 319.823 50.177,320.141 49.223,320.141 48.057 C 320.141 45.964,320.091 45.936,316.351 45.936 C 312.447 45.936,308.834 48.191,308.834 50.626 C 308.834 51.156,308.516 51.590,308.127 51.590 C 307.739 51.590,307.420 53.180,307.420 55.124 C 307.420 58.186,307.232 58.657,306.007 58.657 C 305.230 58.657,304.594 58.975,304.594 59.364 C 304.594 59.753,303.322 60.071,301.767 60.071 C 300.212 60.071,298.940 60.355,298.940 60.703 C 298.940 61.051,297.668 61.457,296.113 61.605 L 293.286 61.875 293.286 58.541 C 293.286 56.707,292.968 55.011,292.580 54.770 C 292.191 54.530,291.873 53.576,291.873 52.650 C 291.873 51.724,291.555 50.770,291.166 50.530 C 290.777 50.290,290.459 49.476,290.459 48.722 C 290.459 46.467,286.794 46.883,285.689 49.263 C 285.203 50.309,284.806 51.579,284.806 52.084 C 284.806 52.590,284.462 53.004,284.041 53.004 C 283.533 53.004,283.343 55.263,283.474 59.747 C 283.664 66.274,283.614 66.519,281.941 67.395 C 279.240 68.809,276.713 70.284,276.325 70.671 C 275.084 71.912,272.866 72.713,273.219 71.793 C 273.426 71.255,273.255 70.604,272.840 70.348 C 272.425 70.091,272.085 68.488,272.085 66.784 C 272.085 65.081,271.767 63.491,271.378 63.251 C 270.989 63.011,270.671 62.333,270.671 61.745 C 270.671 60.463,268.990 58.657,267.796 58.657 C 266.564 58.657,265.066 60.866,265.040 62.721 C 265.028 63.595,264.700 64.311,264.311 64.311 C 263.892 64.311,263.604 66.902,263.604 70.671 C 263.604 74.441,263.892 77.032,264.311 77.032 C 265.517 77.032,265.086 79.171,263.781 79.661 C 263.101 79.916,261.675 81.047,260.612 82.174 C 258.385 84.537,256.537 83.670,256.537 80.262 C 256.537 79.263,256.219 78.445,255.830 78.445 C 255.442 78.445,255.124 77.809,255.124 77.032 C 255.124 76.254,254.806 75.618,254.417 75.618 C 254.028 75.618,253.710 75.099,253.710 74.465 C 253.710 73.830,253.132 72.796,252.424 72.168 C 251.717 71.539,250.932 70.468,250.680 69.788 C 250.409 69.057,249.490 68.551,248.432 68.551 C 246.528 68.551,245.544 79.803,247.350 80.919 C 247.739 81.159,248.057 82.609,248.057 84.141 C 248.057 85.672,248.375 86.926,248.763 86.926 C 249.152 86.926,249.470 87.562,249.470 88.339 C 249.470 89.117,249.788 89.753,250.177 89.753 C 251.340 89.753,250.976 91.977,249.613 93.203 C 248.914 93.832,247.566 95.459,246.617 96.820 C 245.668 98.180,244.014 100.215,242.941 101.342 L 240.989 103.390 240.989 97.673 C 240.989 94.529,240.671 91.760,240.283 91.519 C 239.894 91.279,239.576 90.602,239.576 90.014 C 239.576 88.384,237.765 86.926,235.740 86.926 C 234.030 86.926,233.922 87.135,233.922 90.459 C 233.922 92.403,233.604 93.993,233.216 93.993 C 232.804 93.993,232.509 96.335,232.509 99.605 C 232.509 102.692,232.827 105.413,233.216 105.654 C 233.604 105.894,233.922 106.867,233.922 107.816 C 233.922 108.764,234.240 109.541,234.629 109.541 C 235.864 109.541,235.390 112.749,233.922 114.325 C 233.145 115.159,232.509 116.187,232.509 116.608 C 232.509 119.204,229.994 120.067,229.007 117.809 C 227.904 115.290,223.551 110.954,222.123 110.954 C 221.616 110.954,221.201 110.636,221.201 110.247 C 221.201 109.859,220.247 109.541,219.081 109.541 L 216.961 109.541 216.961 114.446 C 216.961 117.144,217.279 119.548,217.668 119.788 C 218.057 120.028,218.375 121.001,218.375 121.950 C 218.375 122.899,218.693 123.675,219.081 123.675 C 219.470 123.675,219.788 124.166,219.788 124.767 C 219.788 125.907,222.443 128.915,223.879 129.401 C 224.650 129.662,223.490 132.491,218.302 143.000 C 217.565 144.494,216.961 146.164,216.961 146.710 C 216.961 147.256,216.643 147.703,216.254 147.703 C 215.866 147.703,215.548 148.339,215.548 149.117 C 215.548 149.894,215.230 150.530,214.841 150.530 C 214.452 150.530,214.134 151.147,214.134 151.902 C 214.134 152.656,213.816 153.470,213.428 153.710 C 213.039 153.950,212.721 154.923,212.721 155.872 C 212.721 156.821,212.403 157.597,212.014 157.597 C 211.625 157.597,211.307 158.214,211.307 158.969 C 211.307 159.723,210.989 160.537,210.601 160.777 C 210.212 161.018,209.894 161.990,209.894 162.939 C 209.894 163.888,209.576 164.664,209.187 164.664 C 208.729 164.664,208.481 155.373,208.481 138.204 C 208.481 121.327,208.225 111.586,207.774 111.307 C 207.362 111.053,207.067 107.074,207.067 101.767 C 207.067 96.460,206.772 92.481,206.360 92.226 C 205.948 91.972,205.654 87.992,205.654 82.686 C 205.654 77.379,205.359 73.399,204.947 73.145 C 204.535 72.890,204.240 68.911,204.240 63.604 C 204.240 58.297,203.946 54.318,203.534 54.064 C 203.122 53.809,202.827 49.830,202.827 44.523 C 202.827 39.216,202.532 35.237,202.120 34.982 C 201.731 34.742,201.413 33.292,201.413 31.760 C 201.413 29.446,201.174 28.975,200.000 28.975 C 198.826 28.975,198.587 29.446,198.587 31.760 M156.467 137.809 C 156.917 137.809,157.744 138.445,158.304 139.223 C 158.864 140.000,159.888 140.636,160.580 140.636 C 161.272 140.636,161.837 140.954,161.837 141.343 C 161.837 141.755,164.193 142.049,167.491 142.049 C 172.674 142.049,173.145 142.167,173.145 143.463 C 173.145 144.240,173.463 144.876,173.852 144.876 C 174.240 144.876,174.558 145.653,174.558 146.601 C 174.558 147.550,174.876 148.523,175.265 148.763 C 175.654 149.003,175.972 149.817,175.972 150.572 C 175.972 151.326,176.290 151.943,176.678 151.943 C 177.067 151.943,177.385 152.720,177.385 153.669 C 177.385 154.617,177.703 155.590,178.092 155.830 C 178.481 156.071,178.799 156.884,178.799 157.639 C 178.799 158.393,179.117 159.011,179.505 159.011 C 179.894 159.011,180.212 159.965,180.212 161.131 C 180.212 162.297,180.530 163.251,180.919 163.251 C 181.307 163.251,181.625 164.205,181.625 165.371 C 181.625 166.537,181.943 167.491,182.332 167.491 C 182.721 167.491,183.039 168.426,183.039 169.570 C 183.039 170.713,183.357 171.845,183.746 172.085 C 184.134 172.325,184.452 173.616,184.452 174.953 C 184.452 176.291,184.770 177.385,185.159 177.385 C 185.548 177.385,185.866 178.193,185.866 179.181 C 185.866 180.767,185.115 180.229,179.457 174.587 C 175.933 171.072,171.887 167.322,170.468 166.254 C 169.048 165.185,166.646 163.118,165.130 161.661 C 163.614 160.203,162.063 159.011,161.682 159.011 C 161.302 159.011,160.100 158.057,159.011 156.890 C 157.921 155.724,156.678 154.770,156.247 154.770 C 155.817 154.770,154.466 153.816,153.246 152.650 C 152.025 151.484,150.597 150.530,150.072 150.530 C 149.546 150.530,149.117 150.212,149.117 149.823 C 149.117 149.435,148.640 149.117,148.057 149.117 C 147.473 149.117,146.996 148.833,146.996 148.486 C 146.996 148.138,147.473 147.671,148.057 147.448 C 148.640 147.224,149.117 146.700,149.117 146.282 C 149.117 145.865,149.753 144.841,150.530 144.007 C 151.307 143.172,151.943 141.773,151.943 140.898 C 151.943 140.022,152.261 139.109,152.650 138.869 C 153.039 138.629,153.374 137.577,153.394 136.531 L 153.431 134.629 154.540 136.219 C 155.150 137.094,156.017 137.809,156.467 137.809 M247.410 138.834 C 247.765 139.203,248.057 140.177,248.057 140.997 C 248.057 141.818,248.693 143.172,249.470 144.007 C 250.247 144.841,250.883 145.865,250.883 146.282 C 250.883 146.700,251.360 147.224,251.943 147.448 C 252.527 147.671,253.004 148.138,253.004 148.486 C 253.004 148.833,252.527 149.117,251.943 149.117 C 251.360 149.117,250.883 149.435,250.883 149.823 C 250.883 150.212,250.454 150.530,249.928 150.530 C 249.403 150.530,247.975 151.484,246.754 152.650 C 245.534 153.816,244.183 154.770,243.753 154.770 C 243.322 154.770,242.079 155.724,240.989 156.890 C 239.900 158.057,238.698 159.011,238.318 159.011 C 237.937 159.011,236.386 160.203,234.870 161.661 C 233.354 163.118,230.952 165.185,229.532 166.254 C 228.113 167.322,224.067 171.072,220.543 174.587 C 214.885 180.229,214.134 180.767,214.134 179.181 C 214.134 178.193,214.452 177.385,214.841 177.385 C 215.230 177.385,215.548 176.291,215.548 174.953 C 215.548 173.616,215.866 172.325,216.254 172.085 C 216.643 171.845,216.961 170.713,216.961 169.570 C 216.961 168.426,217.279 167.491,217.668 167.491 C 218.057 167.491,218.375 166.537,218.375 165.371 C 218.375 164.205,218.693 163.251,219.081 163.251 C 219.470 163.251,219.788 162.297,219.788 161.131 C 219.788 159.965,220.106 159.011,220.495 159.011 C 220.883 159.011,221.201 158.393,221.201 157.639 C 221.201 156.884,221.519 156.071,221.908 155.830 C 222.297 155.590,222.615 154.617,222.615 153.669 C 222.615 152.720,222.933 151.943,223.322 151.943 C 223.710 151.943,224.028 151.326,224.028 150.572 C 224.028 149.817,224.346 149.003,224.735 148.763 C 225.124 148.523,225.442 147.550,225.442 146.601 C 225.442 145.653,225.760 144.876,226.148 144.876 C 226.537 144.876,226.855 144.240,226.855 143.463 C 226.855 142.167,227.326 142.049,232.509 142.049 C 235.807 142.049,238.163 141.755,238.163 141.343 C 238.163 140.954,238.728 140.636,239.420 140.636 C 240.112 140.636,241.136 140.000,241.696 139.223 C 242.256 138.445,243.110 137.809,243.594 137.809 C 244.078 137.809,244.875 137.094,245.366 136.219 L 246.259 134.629 246.511 136.396 C 246.649 137.367,247.054 138.465,247.410 138.834 M95.810 219.384 C 96.365 219.939,96.820 220.734,96.820 221.151 C 96.820 221.567,97.217 221.933,97.703 221.964 C 98.410 222.009,98.410 222.091,97.703 222.376 C 97.217 222.572,96.820 223.198,96.820 223.766 C 96.820 225.293,93.571 228.269,91.905 228.269 C 91.110 228.269,90.459 227.951,90.459 227.562 C 90.459 227.173,89.982 226.855,89.399 226.855 C 88.657 226.855,88.339 226.106,88.339 224.356 C 88.339 219.912,93.142 216.716,95.810 219.384 M197.173 221.555 C 197.173 223.304,196.855 224.735,196.466 224.735 C 196.047 224.735,195.760 227.334,195.760 231.118 C 195.760 238.145,196.715 239.722,199.221 236.833 C 199.935 236.009,201.216 235.336,202.068 235.336 C 202.921 235.336,203.421 235.018,203.180 234.629 C 202.901 234.178,205.071 233.922,209.187 233.922 C 213.303 233.922,215.473 234.178,215.194 234.629 C 214.954 235.018,215.423 235.336,216.236 235.336 C 217.946 235.336,222.615 239.715,222.615 241.319 C 222.615 241.915,222.933 242.403,223.322 242.403 C 223.710 242.403,224.028 243.198,224.028 244.170 C 224.028 245.141,224.346 245.936,224.735 245.936 C 225.124 245.936,225.442 247.527,225.442 249.470 C 225.442 251.413,225.124 253.004,224.735 253.004 C 224.346 253.004,224.028 254.276,224.028 255.830 C 224.028 257.385,223.710 258.657,223.322 258.657 C 222.933 258.657,222.615 259.134,222.615 259.717 C 222.615 260.300,222.297 260.777,221.908 260.777 C 221.519 260.777,221.201 261.263,221.201 261.856 C 221.201 263.258,215.202 269.258,213.800 269.258 C 213.206 269.258,212.721 269.576,212.721 269.965 C 212.721 270.353,211.767 270.671,210.601 270.671 C 209.435 270.671,208.481 270.989,208.481 271.378 C 208.481 271.771,206.596 272.085,204.240 272.085 C 201.885 272.085,200.000 271.771,200.000 271.378 C 200.000 270.989,199.492 270.671,198.870 270.671 C 198.249 270.671,196.849 269.717,195.760 268.551 C 194.670 267.385,193.271 266.431,192.649 266.431 C 191.865 266.431,191.519 267.080,191.519 268.551 L 191.519 270.671 187.279 270.671 L 183.039 270.671 183.039 268.551 C 183.039 267.385,183.357 266.431,183.746 266.431 C 184.164 266.431,184.452 263.840,184.452 260.071 C 184.452 256.302,184.740 253.710,185.159 253.710 C 185.578 253.710,185.866 251.119,185.866 247.350 C 185.866 243.581,186.154 240.989,186.572 240.989 C 186.991 240.989,187.279 238.398,187.279 234.629 C 187.279 230.860,187.567 228.269,187.986 228.269 C 188.390 228.269,188.693 226.148,188.693 223.322 L 188.693 218.375 192.933 218.375 L 197.173 218.375 197.173 221.555 M245.230 219.788 C 245.230 220.565,244.912 221.201,244.523 221.201 C 244.104 221.201,243.816 223.793,243.816 227.562 C 243.816 231.331,243.528 233.922,243.110 233.922 C 242.691 233.922,242.403 236.514,242.403 240.283 C 242.403 244.052,242.115 246.643,241.696 246.643 C 241.277 246.643,240.989 249.234,240.989 253.004 C 240.989 256.773,240.701 259.364,240.283 259.364 C 239.870 259.364,239.576 261.720,239.576 265.018 L 239.576 270.671 235.336 270.671 L 231.095 270.671 231.095 266.784 C 231.095 264.647,231.413 262.898,231.802 262.898 C 232.221 262.898,232.509 260.306,232.509 256.537 C 232.509 252.768,232.797 250.177,233.216 250.177 C 233.634 250.177,233.922 247.585,233.922 243.816 C 233.922 240.047,234.210 237.456,234.629 237.456 C 235.048 237.456,235.336 234.865,235.336 231.095 C 235.336 227.326,235.624 224.735,236.042 224.735 C 236.431 224.735,236.749 223.304,236.749 221.555 L 236.749 218.375 240.989 218.375 C 244.759 218.375,245.230 218.532,245.230 219.788 M192.570 219.582 C 194.120 219.753,195.655 220.267,195.981 220.724 C 196.389 221.295,196.485 221.223,196.289 220.495 C 196.094 219.773,195.007 219.408,192.878 219.352 C 189.776 219.270,189.774 219.272,192.570 219.582 M348.410 228.975 L 348.410 233.922 353.357 233.922 L 358.304 233.922 358.304 237.456 L 358.304 240.989 352.650 240.989 L 346.996 240.989 346.996 244.876 C 346.996 247.014,346.678 248.763,346.290 248.763 C 345.863 248.763,345.583 251.708,345.583 256.184 L 345.583 263.604 349.823 263.604 C 353.193 263.604,354.064 263.831,354.064 264.706 C 354.064 265.312,354.382 265.611,354.770 265.371 C 355.197 265.107,355.477 266.070,355.477 267.803 C 355.477 270.610,355.424 270.671,353.004 270.671 C 351.643 270.671,350.530 270.989,350.530 271.378 C 350.530 271.767,349.417 272.085,348.057 272.085 C 346.696 272.085,345.583 271.767,345.583 271.378 C 345.583 270.989,344.774 270.671,343.784 270.671 C 341.801 270.671,338.516 267.827,338.516 266.110 C 338.516 265.509,338.198 265.018,337.809 265.018 C 337.393 265.018,337.102 262.544,337.102 259.011 C 337.102 255.477,337.393 253.004,337.809 253.004 C 338.225 253.004,338.516 250.530,338.516 246.996 L 338.516 240.989 335.689 240.989 L 332.862 240.989 332.862 237.456 L 332.862 233.922 336.396 233.922 L 339.929 233.922 339.929 230.742 C 339.929 228.993,340.247 227.562,340.636 227.562 C 341.025 227.562,341.343 226.767,341.343 225.795 C 341.343 224.146,341.578 224.028,344.876 224.028 L 348.410 224.028 348.410 228.975 M162.898 233.216 C 163.138 233.604,164.270 233.922,165.413 233.922 C 166.556 233.922,167.491 234.240,167.491 234.629 C 167.491 235.018,168.127 235.336,168.905 235.336 C 169.682 235.336,170.318 235.654,170.318 236.042 C 170.318 236.431,170.954 236.749,171.731 236.749 C 172.615 236.749,173.145 237.220,173.145 238.007 C 173.145 238.698,173.781 239.722,174.558 240.283 C 175.336 240.843,175.972 241.804,175.972 242.417 C 175.972 243.031,176.305 243.867,176.713 244.275 C 177.132 244.694,177.363 247.135,177.243 249.893 L 177.032 254.770 162.367 254.961 L 147.703 255.152 147.703 257.644 C 147.703 260.308,150.226 263.604,152.265 263.604 C 152.865 263.604,153.357 263.922,153.357 264.311 C 153.357 264.710,155.359 265.018,157.951 265.018 C 160.542 265.018,162.544 264.710,162.544 264.311 C 162.544 263.922,163.631 263.604,164.959 263.604 C 166.287 263.604,167.503 263.216,167.661 262.741 C 167.990 261.755,171.731 265.164,171.731 266.449 C 171.731 267.603,169.887 269.258,168.602 269.258 C 167.991 269.258,167.491 269.576,167.491 269.965 C 167.491 270.353,166.537 270.671,165.371 270.671 C 164.205 270.671,163.251 270.989,163.251 271.378 C 163.251 271.797,160.660 272.085,156.890 272.085 C 153.121 272.085,150.530 271.797,150.530 271.378 C 150.530 270.989,149.894 270.671,149.117 270.671 C 148.339 270.671,147.703 270.353,147.703 269.965 C 147.703 269.576,147.216 269.258,146.620 269.258 C 145.036 269.258,140.636 264.599,140.636 262.921 C 140.636 262.131,140.318 261.484,139.929 261.484 C 139.507 261.484,139.223 258.761,139.223 254.729 C 139.223 250.405,139.477 248.130,139.929 248.410 C 140.330 248.658,140.636 248.064,140.636 247.038 C 140.636 246.044,140.954 245.230,141.343 245.230 C 141.731 245.230,142.049 244.744,142.049 244.151 C 142.049 242.749,148.049 236.749,149.451 236.749 C 150.045 236.749,150.530 236.431,150.530 236.042 C 150.530 235.654,151.007 235.336,151.590 235.336 C 152.173 235.336,152.650 235.018,152.650 234.629 C 152.650 234.240,154.081 233.922,155.830 233.922 C 157.580 233.922,159.011 233.604,159.011 233.216 C 159.011 232.827,159.787 232.509,160.736 232.509 C 161.684 232.509,162.657 232.827,162.898 233.216 M59.364 234.629 L 56.890 235.150 59.187 235.243 C 60.982 235.315,61.484 235.645,61.484 236.749 C 61.484 237.633,61.955 238.163,62.742 238.163 C 63.433 238.163,64.457 237.527,65.018 236.749 C 65.578 235.972,66.602 235.336,67.294 235.336 C 67.985 235.336,68.551 235.018,68.551 234.629 C 68.551 234.225,70.671 233.922,73.498 233.922 C 76.325 233.922,78.445 234.225,78.445 234.629 C 78.445 235.018,79.081 235.336,79.859 235.336 C 80.801 235.336,81.272 235.807,81.272 236.749 C 81.272 237.527,80.954 238.163,80.565 238.163 C 80.177 238.163,79.859 238.799,79.859 239.576 C 79.859 240.353,79.589 240.989,79.260 240.989 C 78.931 240.989,78.316 241.705,77.894 242.580 C 77.473 243.454,77.106 243.772,77.080 243.286 C 77.053 242.800,76.415 242.403,75.660 242.403 C 74.906 242.403,74.092 242.085,73.852 241.696 C 73.611 241.307,72.498 240.989,71.378 240.989 C 70.258 240.989,69.145 241.307,68.905 241.696 C 68.664 242.085,67.677 242.403,66.711 242.403 C 64.605 242.403,61.484 245.313,61.484 247.276 C 61.484 248.048,61.166 248.876,60.777 249.117 C 60.389 249.357,60.071 251.920,60.071 254.812 C 60.071 257.847,59.772 260.071,59.364 260.071 C 58.956 260.071,58.657 262.309,58.657 265.371 L 58.657 270.671 54.417 270.671 L 50.177 270.671 50.177 266.784 C 50.177 264.647,50.495 262.898,50.883 262.898 C 51.302 262.898,51.590 260.306,51.590 256.537 C 51.590 252.768,51.878 250.177,52.297 250.177 C 52.716 250.177,53.004 247.585,53.004 243.816 C 53.004 240.047,53.291 237.456,53.710 237.456 C 54.099 237.456,54.417 236.661,54.417 235.689 C 54.417 234.017,54.616 233.927,58.127 234.015 C 61.578 234.102,61.664 234.145,59.364 234.629 M91.873 234.629 L 87.986 235.105 91.696 235.220 L 95.406 235.336 95.406 238.163 C 95.406 239.717,95.088 240.989,94.700 240.989 C 94.281 240.989,93.993 243.581,93.993 247.350 C 93.993 251.119,93.705 253.710,93.286 253.710 C 92.867 253.710,92.580 256.302,92.580 260.071 C 92.580 263.840,92.292 266.431,91.873 266.431 C 91.484 266.431,91.166 267.385,91.166 268.551 L 91.166 270.671 86.926 270.671 C 84.570 270.671,82.686 270.357,82.686 269.965 C 82.686 269.576,83.004 269.258,83.392 269.258 C 83.811 269.258,84.099 266.667,84.099 262.898 C 84.099 259.128,84.387 256.537,84.806 256.537 C 85.224 256.537,85.512 253.946,85.512 250.177 C 85.512 246.408,85.800 243.816,86.219 243.816 C 86.623 243.816,86.926 241.696,86.926 238.869 L 86.926 233.922 91.343 234.037 L 95.760 234.153 91.873 234.629 M128.622 234.629 C 128.622 235.018,128.954 235.336,129.361 235.336 C 129.767 235.336,130.893 236.129,131.862 237.098 L 133.625 238.861 130.997 241.489 C 129.424 243.061,128.254 243.772,128.083 243.260 C 127.926 242.788,127.188 242.403,126.443 242.403 C 125.698 242.403,125.088 242.085,125.088 241.696 C 125.088 241.307,123.339 240.989,121.201 240.989 C 119.064 240.989,117.314 241.307,117.314 241.696 C 117.314 242.085,116.664 242.403,115.869 242.403 C 114.172 242.403,110.954 245.389,110.954 246.964 C 110.954 247.565,110.636 248.057,110.247 248.057 C 109.859 248.057,109.541 249.170,109.541 250.530 C 109.541 251.890,109.223 253.004,108.834 253.004 C 108.445 253.004,108.127 253.799,108.127 254.770 C 108.127 255.742,108.445 256.537,108.834 256.537 C 109.223 256.537,109.541 257.347,109.541 258.336 C 109.541 260.496,112.441 263.604,114.456 263.604 C 115.251 263.604,115.901 263.922,115.901 264.311 C 115.901 264.700,117.173 265.018,118.728 265.018 C 120.283 265.018,121.555 264.700,121.555 264.311 C 121.555 263.922,122.641 263.604,123.969 263.604 C 125.297 263.604,126.513 263.216,126.672 262.741 C 127.000 261.755,130.742 265.164,130.742 266.449 C 130.742 267.603,128.897 269.258,127.612 269.258 C 127.002 269.258,126.502 269.576,126.502 269.965 C 126.502 270.353,125.866 270.671,125.088 270.671 C 124.311 270.671,123.675 270.989,123.675 271.378 C 123.675 271.794,121.201 272.085,117.668 272.085 C 114.134 272.085,111.661 271.794,111.661 271.378 C 111.661 270.989,111.016 270.671,110.229 270.671 C 108.772 270.671,102.473 264.947,102.473 263.623 C 102.473 263.224,102.155 262.898,101.767 262.898 C 101.341 262.898,101.060 259.953,101.060 255.477 C 101.060 251.001,101.341 248.057,101.767 248.057 C 102.155 248.057,102.473 247.420,102.473 246.643 C 102.473 245.866,102.792 245.230,103.180 245.230 C 103.569 245.230,103.887 244.744,103.887 244.151 C 103.887 242.749,109.886 236.749,111.289 236.749 C 111.882 236.749,112.367 236.431,112.367 236.042 C 112.367 235.654,113.004 235.336,113.781 235.336 C 114.558 235.336,115.194 235.018,115.194 234.629 C 115.194 234.207,117.903 233.922,121.908 233.922 C 125.913 233.922,128.622 234.207,128.622 234.629 M276.325 236.042 C 277.543 237.346,279.013 238.163,280.142 238.163 C 281.712 238.163,281.979 237.854,281.979 236.042 C 281.979 233.845,288.880 232.645,290.106 234.629 C 290.346 235.018,290.206 235.336,289.794 235.336 C 289.323 235.336,289.046 237.691,289.046 241.696 C 289.046 245.465,288.758 248.057,288.339 248.057 C 287.920 248.057,287.633 250.648,287.633 254.417 C 287.633 258.186,287.345 260.777,286.926 260.777 C 286.522 260.777,286.219 262.898,286.219 265.724 L 286.219 270.671 281.979 270.671 C 278.210 270.671,277.739 270.514,277.739 269.258 C 277.739 268.316,277.267 267.845,276.325 267.845 C 275.548 267.845,274.912 268.163,274.912 268.551 C 274.912 268.940,274.276 269.258,273.498 269.258 C 272.721 269.258,272.085 269.576,272.085 269.965 C 272.085 270.353,271.449 270.671,270.671 270.671 C 269.894 270.671,269.258 270.989,269.258 271.378 C 269.258 271.786,267.020 272.085,263.958 272.085 C 260.895 272.085,258.657 271.786,258.657 271.378 C 258.657 270.989,258.013 270.671,257.225 270.671 C 255.367 270.671,249.470 264.775,249.470 262.916 C 249.470 262.129,249.152 261.484,248.763 261.484 C 248.348 261.484,248.057 259.011,248.057 255.477 C 248.057 251.943,248.348 249.470,248.763 249.470 C 249.152 249.470,249.470 248.834,249.470 248.057 C 249.470 247.279,249.788 246.643,250.177 246.643 C 250.565 246.643,250.883 246.007,250.883 245.230 C 250.883 244.452,251.201 243.816,251.590 243.816 C 251.979 243.816,252.297 243.329,252.297 242.733 C 252.297 242.137,253.399 240.547,254.747 239.199 C 256.094 237.852,257.684 236.749,258.280 236.749 C 258.876 236.749,259.364 236.431,259.364 236.042 C 259.364 235.654,260.000 235.336,260.777 235.336 C 261.555 235.336,262.191 235.018,262.191 234.629 C 262.191 232.644,274.279 233.852,276.325 236.042 M321.555 234.629 C 321.555 235.018,322.055 235.336,322.665 235.336 C 325.742 235.336,326.499 238.229,324.060 240.668 C 322.304 242.424,320.141 242.992,320.141 241.696 C 320.141 241.307,319.187 240.989,318.021 240.989 C 316.855 240.989,315.901 240.671,315.901 240.283 C 315.901 239.894,314.648 239.576,313.116 239.576 C 311.584 239.576,310.134 239.894,309.894 240.283 C 309.654 240.671,308.817 240.989,308.035 240.989 C 307.253 240.989,306.159 241.444,305.603 241.999 C 303.457 244.146,305.027 248.057,308.035 248.057 C 308.817 248.057,309.654 248.375,309.894 248.763 C 310.134 249.152,312.379 249.470,314.883 249.470 C 317.446 249.470,319.435 249.779,319.435 250.177 C 319.435 250.565,319.912 250.883,320.495 250.883 C 321.078 250.883,321.555 251.201,321.555 251.590 C 321.555 251.979,322.191 252.297,322.968 252.297 C 323.910 252.297,324.382 252.768,324.382 253.710 C 324.382 254.488,324.700 255.124,325.088 255.124 C 325.481 255.124,325.795 257.008,325.795 259.364 C 325.795 261.720,325.481 263.604,325.088 263.604 C 324.700 263.604,324.382 264.092,324.382 264.688 C 324.382 266.072,319.815 270.671,318.440 270.671 C 317.867 270.671,317.201 270.989,316.961 271.378 C 316.713 271.780,313.185 272.085,308.792 272.085 C 304.109 272.085,301.060 271.806,301.060 271.378 C 301.060 270.989,300.583 270.671,300.000 270.671 C 299.417 270.671,298.940 270.353,298.940 269.965 C 298.940 269.576,298.440 269.258,297.829 269.258 C 297.219 269.258,296.265 268.804,295.709 268.248 C 294.551 267.090,294.357 265.018,295.406 265.018 C 295.795 265.018,296.113 264.518,296.113 263.907 C 296.113 261.526,298.154 260.470,299.580 262.114 C 300.291 262.933,301.551 263.604,302.380 263.604 C 303.209 263.604,303.887 263.922,303.887 264.311 C 303.887 266.007,315.153 265.124,316.993 263.283 C 319.948 260.328,318.767 256.537,314.891 256.537 C 313.892 256.537,313.074 256.219,313.074 255.830 C 313.074 255.438,311.190 255.124,308.834 255.124 C 306.478 255.124,304.594 254.810,304.594 254.417 C 304.594 254.028,304.106 253.710,303.510 253.710 C 300.856 253.710,297.527 248.994,297.527 245.235 C 297.527 241.514,302.120 235.336,304.887 235.336 C 305.457 235.336,306.120 235.018,306.360 234.629 C 306.606 234.231,310.019 233.922,314.176 233.922 C 318.624 233.922,321.555 234.203,321.555 234.629 M151.419 243.486 C 149.896 245.080,149.178 246.486,149.277 247.677 L 149.425 249.470 159.165 249.470 L 168.905 249.470 168.905 246.964 C 168.905 240.566,156.554 238.109,151.419 243.486 M202.827 241.696 C 202.827 242.085,202.191 242.403,201.413 242.403 C 200.636 242.403,200.000 242.721,200.000 243.110 C 200.000 243.498,199.500 243.816,198.889 243.816 C 197.461 243.816,195.760 245.518,195.760 246.946 C 195.760 247.557,195.442 248.057,195.053 248.057 C 194.641 248.057,194.346 250.412,194.346 253.710 C 194.346 257.008,194.641 259.364,195.053 259.364 C 195.442 259.364,195.760 260.000,195.760 260.777 C 195.760 261.720,196.231 262.191,197.173 262.191 C 197.951 262.191,198.587 262.509,198.587 262.898 C 198.587 263.310,200.942 263.604,204.240 263.604 C 207.538 263.604,209.894 263.310,209.894 262.898 C 209.894 262.509,210.385 262.191,210.986 262.191 C 212.703 262.191,215.548 258.906,215.548 256.923 C 215.548 255.933,215.866 255.124,216.254 255.124 C 216.647 255.124,216.961 253.239,216.961 250.883 C 216.961 248.528,216.647 246.643,216.254 246.643 C 215.866 246.643,215.548 246.143,215.548 245.533 C 215.548 244.104,213.846 242.403,212.418 242.403 C 211.807 242.403,211.307 242.085,211.307 241.696 C 211.307 241.303,209.423 240.989,207.067 240.989 C 204.711 240.989,202.827 241.303,202.827 241.696 M263.604 241.696 C 263.604 242.085,263.113 242.403,262.512 242.403 C 260.937 242.403,257.951 245.621,257.951 247.318 C 257.951 248.113,257.633 248.763,257.244 248.763 C 256.835 248.763,256.537 251.001,256.537 254.064 C 256.537 257.126,256.835 259.364,257.244 259.364 C 257.633 259.364,257.951 259.864,257.951 260.475 C 257.951 262.033,259.699 263.604,261.434 263.604 C 262.239 263.604,262.898 263.922,262.898 264.311 C 262.898 264.700,264.647 265.018,266.784 265.018 C 268.922 265.018,270.671 264.700,270.671 264.311 C 270.671 263.922,271.307 263.604,272.085 263.604 C 272.862 263.604,273.498 263.286,273.498 262.898 C 273.498 262.509,274.134 262.191,274.912 262.191 C 275.795 262.191,276.325 261.720,276.325 260.933 C 276.325 260.242,276.961 259.218,277.739 258.657 C 279.299 257.533,279.946 245.230,278.445 245.230 C 278.057 245.230,277.739 244.594,277.739 243.816 C 277.739 242.874,277.267 242.403,276.325 242.403 C 275.548 242.403,274.912 242.085,274.912 241.696 C 274.912 241.284,272.556 240.989,269.258 240.989 C 265.960 240.989,263.604 241.284,263.604 241.696 " stroke="none" fill="#1bab36" fill-rule="evenodd"></path><path id="path4" d="" stroke="none" fill="#00ffff" fill-rule="evenodd"></path></g></svg>